<svg width="894" height="331" viewBox="0 0 894 331" fill="none" xmlns="http://www.w3.org/2000/svg">
<path d="M86 261C74.279 261 64.7778 251.499 64.7778 239.778V200.787C64.7778 195.596 64.7778 193.001 64.191 190.558C63.671 188.393 62.8137 186.323 61.6507 184.424C60.3381 182.283 58.5024 180.447 54.832 176.776L43.5555 165.5L54.832 154.224C58.5024 150.553 60.3381 148.717 61.6507 146.576C62.8137 144.677 63.671 142.607 64.191 140.441C64.7778 137.999 64.7778 135.404 64.7778 130.213V91.2222C64.7778 79.5015 74.279 70 86 70" stroke="#9B7FD4" stroke-width="20" stroke-linecap="round" stroke-linejoin="round"/>
<path d="M214.648 137.63C216.244 137.63 217.545 138.932 217.545 140.528C217.545 142.126 216.246 143.425 214.648 143.425C213.05 143.425 211.751 142.126 211.75 140.528C211.75 138.932 213.052 137.63 214.648 137.63Z" fill="#9B7FD4" stroke="#9B7FD4" stroke-width="8.91372"/>
<path d="M185.23 137.63C186.827 137.63 188.128 138.932 188.128 140.528C188.128 142.126 186.828 143.425 185.23 143.425C183.633 143.425 182.333 142.126 182.333 140.528C182.333 138.932 183.634 137.63 185.23 137.63Z" fill="#9B7FD4" stroke="#9B7FD4" stroke-width="8.91372"/>
<mask id="path-4-inside-1_37_2" fill="white">
<path d="M199.939 177.309C195.703 177.309 191.467 176.257 187.263 174.154C185.445 173.246 184.709 171.037 185.618 169.22C186.525 167.405 188.729 166.667 190.552 167.575C196.869 170.735 203.009 170.735 209.326 167.575C211.145 166.667 213.351 167.405 214.26 169.22C215.168 171.037 214.432 173.246 212.615 174.154C208.41 176.257 204.174 177.309 199.939 177.309Z"/>
</mask>
<path d="M199.939 177.309C195.703 177.309 191.467 176.257 187.263 174.154C185.445 173.246 184.709 171.037 185.618 169.22C186.525 167.405 188.729 166.667 190.552 167.575C196.869 170.735 203.009 170.735 209.326 167.575C211.145 166.667 213.351 167.405 214.26 169.22C215.168 171.037 214.432 173.246 212.615 174.154C208.41 176.257 204.174 177.309 199.939 177.309Z" fill="#9B7FD4"/>
<path d="M187.263 174.154L191.249 166.182L191.249 166.182L187.263 174.154ZM185.618 169.22L193.59 173.207L193.592 173.203L185.618 169.22ZM190.552 167.575L194.54 159.604L194.528 159.597L190.552 167.575ZM209.326 167.575L205.343 159.601L205.338 159.604L209.326 167.575ZM214.26 169.22L222.233 165.234L222.231 165.231L214.26 169.22ZM212.615 174.154L216.601 182.127L216.602 182.127L212.615 174.154ZM199.939 177.309V168.395C197.229 168.395 194.35 167.732 191.249 166.182L187.263 174.154L183.276 182.127C188.585 184.781 194.177 186.223 199.939 186.223V177.309ZM187.263 174.154L191.249 166.182C193.834 167.474 194.884 170.62 193.59 173.207L185.618 169.22L177.645 165.233C174.534 171.454 177.056 179.017 183.276 182.127L187.263 174.154ZM185.618 169.22L193.592 173.203C192.297 175.797 189.149 176.836 186.576 175.553L190.552 167.575L194.528 159.597C188.31 156.498 180.752 159.013 177.643 165.237L185.618 169.22ZM190.552 167.575L186.564 175.547C195.391 179.963 204.487 179.963 213.314 175.547L209.326 167.575L205.338 159.604C201.531 161.508 198.346 161.508 194.54 159.604L190.552 167.575ZM209.326 167.575L213.308 175.55C210.722 176.841 207.58 175.79 206.289 173.21L214.26 169.22L222.231 165.231C219.122 159.019 211.567 156.493 205.343 159.601L209.326 167.575ZM214.26 169.22L206.287 173.206C204.994 170.62 206.043 167.475 208.628 166.182L212.615 174.154L216.602 182.127C222.821 179.016 225.342 171.454 222.233 165.234L214.26 169.22ZM212.615 174.154L208.629 166.182C205.527 167.732 202.648 168.395 199.939 168.395V177.309V186.223C205.701 186.223 211.292 184.781 216.601 182.127L212.615 174.154Z" fill="#9B7FD4" mask="url(#path-4-inside-1_37_2)"/>
<mask id="path-6-inside-2_37_2" fill="white">
<path d="M199.94 201.327C174.921 201.327 154.567 176.298 154.567 145.532C154.567 143.749 154.635 141.986 154.769 140.248L162.101 140.808C161.983 142.363 161.922 143.939 161.922 145.532C161.922 172.244 178.976 193.973 199.94 193.973C220.901 193.973 237.954 172.244 237.954 145.532C237.954 141.576 237.581 137.655 236.845 133.875C236.389 131.525 235.782 129.195 235.046 126.945L242.034 124.654C242.867 127.193 243.549 129.823 244.063 132.472C244.889 136.711 245.309 141.106 245.309 145.532C245.309 176.298 224.955 201.327 199.94 201.327Z"/>
</mask>
<path d="M199.94 201.327C174.921 201.327 154.567 176.298 154.567 145.532C154.567 143.749 154.635 141.986 154.769 140.248L162.101 140.808C161.983 142.363 161.922 143.939 161.922 145.532C161.922 172.244 178.976 193.973 199.94 193.973C220.901 193.973 237.954 172.244 237.954 145.532C237.954 141.576 237.581 137.655 236.845 133.875C236.389 131.525 235.782 129.195 235.046 126.945L242.034 124.654C242.867 127.193 243.549 129.823 244.063 132.472C244.889 136.711 245.309 141.106 245.309 145.532C245.309 176.298 224.955 201.327 199.94 201.327Z" fill="#9B7FD4"/>
<path d="M154.769 140.248L155.448 131.36L146.561 130.681L145.881 139.567L154.769 140.248ZM162.101 140.808L170.989 141.485L171.666 132.599L162.781 131.92L162.101 140.808ZM236.845 133.875L228.094 135.573L228.096 135.58L236.845 133.875ZM235.046 126.945L232.269 118.475L223.804 121.25L226.574 129.716L235.046 126.945ZM242.034 124.654L250.503 121.874L247.724 113.408L239.257 116.184L242.034 124.654ZM244.063 132.472L235.312 134.169L235.314 134.176L244.063 132.472ZM199.94 201.327V192.414C181.478 192.414 163.481 173.186 163.481 145.532H154.567H145.654C145.654 179.41 168.364 210.241 199.94 210.241V201.327ZM154.567 145.532H163.481C163.481 143.976 163.541 142.44 163.656 140.928L154.769 140.248L145.881 139.567C145.73 141.532 145.654 143.523 145.654 145.532H154.567ZM154.769 140.248L154.089 149.136L161.422 149.696L162.101 140.808L162.781 131.92L155.448 131.36L154.769 140.248ZM162.101 140.808L153.213 140.131C153.078 141.909 153.008 143.712 153.008 145.532H161.922H170.836C170.836 144.167 170.888 142.816 170.989 141.485L162.101 140.808ZM161.922 145.532H153.008C153.008 175.034 172.162 202.887 199.94 202.887V193.973V185.059C185.789 185.059 170.836 169.453 170.836 145.532H161.922ZM199.94 193.973V202.887C227.715 202.887 246.868 175.033 246.868 145.532H237.954H229.041C229.041 169.454 214.087 185.059 199.94 185.059V193.973ZM237.954 145.532H246.868C246.868 141.02 246.443 136.527 245.594 132.171L236.845 133.875L228.096 135.58C228.72 138.783 229.041 142.133 229.041 145.532H237.954ZM236.845 133.875L245.596 132.178C245.068 129.46 244.368 126.771 243.518 124.173L235.046 126.945L226.574 129.716C227.196 131.618 227.71 133.59 228.094 135.573L236.845 133.875ZM235.046 126.945L237.822 135.415L244.811 133.124L242.034 124.654L239.257 116.184L232.269 118.475L235.046 126.945ZM242.034 124.654L233.565 127.434C234.28 129.612 234.869 131.881 235.312 134.169L244.063 132.472L252.814 130.774C252.23 127.765 251.454 124.773 250.503 121.874L242.034 124.654ZM244.063 132.472L235.314 134.176C236.028 137.841 236.395 141.665 236.395 145.532H245.309H254.223C254.223 140.547 253.75 135.58 252.812 130.767L244.063 132.472ZM245.309 145.532H236.395C236.395 173.187 218.398 192.414 199.94 192.414V201.327V210.241C231.512 210.241 254.223 179.409 254.223 145.532H245.309Z" fill="#9B7FD4" mask="url(#path-6-inside-2_37_2)"/>
<path d="M201.638 143.898V145.783L200.788 143.898H201.638ZM199.155 143.898L198.306 145.781V143.898H199.155Z" fill="#9B7FD4" stroke="#9B7FD4" stroke-width="8.91372"/>
<mask id="path-9-inside-3_37_2" fill="white">
<path d="M158.442 144.205C157.077 144.207 155.766 143.444 155.131 142.135C154.244 140.309 155.005 138.108 156.833 137.221C160.241 135.565 167.732 119.189 172.59 104.932C173.197 103.156 175.039 102.131 176.871 102.53C178.699 102.937 179.93 104.657 179.726 106.521C179.729 106.521 179.665 109.044 182.695 112.071C187.188 116.555 200.424 123.828 238.363 122.13C240.356 122.038 242.112 123.609 242.202 125.64C242.292 127.669 240.723 129.387 238.694 129.477C206.971 130.902 186.222 126.607 176.989 116.748C176.774 116.519 176.565 116.287 176.372 116.057C172.346 126.485 165.861 141.011 160.043 143.835C159.526 144.087 158.98 144.205 158.442 144.205Z"/>
</mask>
<path d="M158.442 144.205C157.077 144.207 155.766 143.444 155.131 142.135C154.244 140.309 155.005 138.108 156.833 137.221C160.241 135.565 167.732 119.189 172.59 104.932C173.197 103.156 175.039 102.131 176.871 102.53C178.699 102.937 179.93 104.657 179.726 106.521C179.729 106.521 179.665 109.044 182.695 112.071C187.188 116.555 200.424 123.828 238.363 122.13C240.356 122.038 242.112 123.609 242.202 125.64C242.292 127.669 240.723 129.387 238.694 129.477C206.971 130.902 186.222 126.607 176.989 116.748C176.774 116.519 176.565 116.287 176.372 116.057C172.346 126.485 165.861 141.011 160.043 143.835C159.526 144.087 158.98 144.205 158.442 144.205Z" fill="#9B7FD4"/>
<path d="M158.442 144.205L158.442 135.292L158.43 135.292L158.442 144.205ZM155.131 142.135L163.149 138.241L163.149 138.241L155.131 142.135ZM156.833 137.221L160.724 145.24L160.727 145.239L156.833 137.221ZM172.59 104.932L164.155 102.05L164.153 102.057L172.59 104.932ZM176.871 102.53L178.81 93.8295L178.788 93.8247L178.766 93.82L176.871 102.53ZM179.726 106.521L170.865 105.549L169.78 115.435H179.726V106.521ZM182.695 112.071L176.396 118.378L176.399 118.38L182.695 112.071ZM238.363 122.13L238.762 131.034L238.772 131.034L238.363 122.13ZM242.202 125.64L233.297 126.033L233.297 126.034L242.202 125.64ZM238.694 129.477L238.3 120.572L238.293 120.572L238.694 129.477ZM176.989 116.748L170.481 122.84L170.483 122.841L176.989 116.748ZM176.372 116.057L183.186 110.311L173.479 98.799L168.056 112.847L176.372 116.057ZM160.043 143.835L156.15 135.817L156.144 135.82L160.043 143.835ZM158.442 144.205L158.43 135.292C160.36 135.289 162.238 136.367 163.149 138.241L155.131 142.135L147.112 146.029C149.294 150.521 153.794 153.125 158.454 153.119L158.442 144.205ZM155.131 142.135L163.149 138.241C164.412 140.842 163.329 143.976 160.724 145.24L156.833 137.221L152.942 129.201C146.681 132.239 144.075 139.776 147.113 146.029L155.131 142.135ZM156.833 137.221L160.727 145.239C162.851 144.207 164.313 142.617 165.073 141.725C165.988 140.652 166.831 139.437 167.586 138.242C169.105 135.837 170.682 132.843 172.211 129.644C175.285 123.209 178.5 115.224 181.028 107.807L172.59 104.932L164.153 102.057C161.822 108.897 158.863 116.228 156.124 121.959C154.747 124.843 153.509 127.145 152.513 128.722C152.01 129.518 151.671 129.966 151.505 130.161C151.185 130.537 151.667 129.82 152.938 129.203L156.833 137.221ZM172.59 104.932L181.025 107.814C180.151 110.372 177.517 111.793 174.975 111.24L176.871 102.53L178.766 93.82C172.562 92.4695 166.243 95.9409 164.155 102.05L172.59 104.932ZM176.871 102.53L174.931 111.23C172.323 110.649 170.574 108.201 170.865 105.549L179.726 106.521L188.586 107.493C189.286 101.113 185.074 95.2257 178.81 93.8295L176.871 102.53ZM179.726 106.521V115.435C175.66 114.453 171.815 110.629 171.306 109.447C171.152 108.96 170.973 108.207 170.927 107.948C170.86 107.537 170.838 107.211 170.835 107.155C170.82 106.957 170.816 106.8 170.816 106.786C170.814 106.739 170.814 106.703 170.814 106.693C170.813 106.686 170.813 106.68 170.813 106.677C170.813 106.674 170.813 106.671 170.813 106.671C170.813 106.667 170.813 106.683 170.814 106.699C170.814 106.718 170.815 106.741 170.815 106.767C170.818 106.877 170.823 107.013 170.832 107.17C170.851 107.483 170.886 107.849 170.946 108.261C171.068 109.087 171.291 110.077 171.688 111.179C172.495 113.421 173.948 115.933 176.396 118.378L182.695 112.071L188.994 105.764C188.412 105.182 188.382 104.918 188.463 105.143C188.496 105.236 188.545 105.405 188.584 105.664C188.602 105.792 188.618 105.938 188.628 106.1C188.633 106.183 188.636 106.261 188.637 106.333C188.638 106.366 188.639 106.395 188.638 106.386C188.638 106.384 188.638 106.372 188.638 106.357C188.638 106.346 188.637 106.308 188.636 106.26C188.635 106.245 188.631 106.086 188.617 105.888C188.613 105.832 188.591 105.505 188.524 105.094C188.478 104.835 188.299 104.082 188.145 103.595C187.636 102.413 183.792 98.5886 179.726 97.6072V106.521ZM182.695 112.071L176.399 118.38C183.633 125.6 200.147 132.763 238.762 131.034L238.363 122.13L237.965 113.225C200.702 114.893 190.743 107.509 188.992 105.762L182.695 112.071ZM238.363 122.13L238.772 131.034C235.893 131.166 233.427 128.977 233.297 126.033L242.202 125.64L251.107 125.246C250.798 118.241 244.82 112.91 237.954 113.225L238.363 122.13ZM242.202 125.64L233.297 126.034C233.17 123.156 235.399 120.7 238.3 120.572L238.694 129.477L239.087 138.382C246.046 138.074 251.414 132.181 251.107 125.246L242.202 125.64ZM238.694 129.477L238.293 120.572C222.841 121.266 210.528 120.539 201.21 118.615C191.765 116.665 186.326 113.679 183.495 110.655L176.989 116.748L170.483 122.841C176.884 129.677 186.437 133.768 197.605 136.074C208.9 138.406 222.823 139.113 239.094 138.381L238.694 129.477ZM176.989 116.748L183.497 110.657C183.356 110.507 183.256 110.393 183.186 110.311L176.372 116.057L169.557 121.803C169.875 122.18 170.191 122.53 170.481 122.84L176.989 116.748ZM176.372 116.057L168.056 112.847C166.097 117.921 163.626 123.76 161.034 128.567C159.734 130.976 158.514 132.919 157.436 134.311C156.227 135.871 155.75 136.011 156.15 135.817L160.043 143.835L163.936 151.854C167.245 150.248 169.76 147.512 171.529 145.229C173.429 142.777 175.173 139.907 176.725 137.029C179.836 131.259 182.62 124.622 184.687 119.267L176.372 116.057ZM160.043 143.835L156.144 135.82C156.871 135.466 157.663 135.292 158.442 135.292V144.205V153.119C160.298 153.119 162.18 152.708 163.942 151.851L160.043 143.835Z" fill="#9B7FD4" mask="url(#path-9-inside-3_37_2)"/>
<mask id="path-11-inside-4_37_2" fill="white">
<path d="M127.376 210.995C126.069 210.995 124.805 210.298 124.14 209.07C117.482 196.774 116.254 188.404 120.381 183.473C123.799 179.394 129.653 179.308 133.854 179.914C134.511 167.414 139.589 143.313 149.274 106.659C154.312 91.852 157.566 86.1836 162.248 83.9515C164.891 82.6932 167.559 82.8403 169.904 83.4095C175.671 77.3443 190.506 69.1206 206.705 70.1587C220.118 71.0508 238.823 78.6549 251.765 109.821C258.448 130.927 262.93 148.078 265.199 161.094C265.458 162.588 267.192 173.383 268.094 178.999C271.566 179.031 276.615 180.008 280.231 184.658C281.481 186.263 281.19 188.572 279.589 189.819C277.983 191.075 275.678 190.774 274.428 189.176C271.43 185.319 265.914 186.511 265.86 186.533C264.869 186.773 263.817 186.583 262.962 186.016C262.107 185.448 261.533 184.551 261.371 183.538C261.371 183.538 258.304 164.376 257.953 162.354C255.741 149.66 251.338 132.833 244.864 112.339C235.742 90.4172 222.703 78.5938 206.217 77.4969C190.485 76.475 176.422 86.0148 174.389 89.5107C173.492 91.0529 171.61 91.7207 169.94 91.114C167.146 90.0851 166.083 90.2701 165.412 90.5915C162.36 92.0458 159.099 100.605 156.309 108.786C145.604 149.344 140.49 174.815 141.191 184.238C141.284 185.463 140.756 186.655 139.787 187.409C138.817 188.167 137.528 188.382 136.368 188.001C133.014 186.913 127.548 186.364 126.015 188.199C125.53 188.784 123.458 192.368 130.608 205.565C131.574 207.353 130.909 209.583 129.125 210.553C128.568 210.851 127.968 210.995 127.376 210.995Z"/>
</mask>
<path d="M127.376 210.995C126.069 210.995 124.805 210.298 124.14 209.07C117.482 196.774 116.254 188.404 120.381 183.473C123.799 179.394 129.653 179.308 133.854 179.914C134.511 167.414 139.589 143.313 149.274 106.659C154.312 91.852 157.566 86.1836 162.248 83.9515C164.891 82.6932 167.559 82.8403 169.904 83.4095C175.671 77.3443 190.506 69.1206 206.705 70.1587C220.118 71.0508 238.823 78.6549 251.765 109.821C258.448 130.927 262.93 148.078 265.199 161.094C265.458 162.588 267.192 173.383 268.094 178.999C271.566 179.031 276.615 180.008 280.231 184.658C281.481 186.263 281.19 188.572 279.589 189.819C277.983 191.075 275.678 190.774 274.428 189.176C271.43 185.319 265.914 186.511 265.86 186.533C264.869 186.773 263.817 186.583 262.962 186.016C262.107 185.448 261.533 184.551 261.371 183.538C261.371 183.538 258.304 164.376 257.953 162.354C255.741 149.66 251.338 132.833 244.864 112.339C235.742 90.4172 222.703 78.5938 206.217 77.4969C190.485 76.475 176.422 86.0148 174.389 89.5107C173.492 91.0529 171.61 91.7207 169.94 91.114C167.146 90.0851 166.083 90.2701 165.412 90.5915C162.36 92.0458 159.099 100.605 156.309 108.786C145.604 149.344 140.49 174.815 141.191 184.238C141.284 185.463 140.756 186.655 139.787 187.409C138.817 188.167 137.528 188.382 136.368 188.001C133.014 186.913 127.548 186.364 126.015 188.199C125.53 188.784 123.458 192.368 130.608 205.565C131.574 207.353 130.909 209.583 129.125 210.553C128.568 210.851 127.968 210.995 127.376 210.995Z" fill="#9B7FD4"/>
<path d="M124.14 209.07L131.981 204.83L131.979 204.825L124.14 209.07ZM120.381 183.473L113.549 177.748L113.545 177.752L120.381 183.473ZM133.854 179.914L132.58 188.737L142.243 190.132L142.756 180.382L133.854 179.914ZM149.274 106.659L140.835 103.788L140.735 104.082L140.656 104.382L149.274 106.659ZM162.248 83.9515L158.416 75.9035L158.413 75.9051L162.248 83.9515ZM169.904 83.4095L167.802 92.0717L172.812 93.2878L176.364 89.5517L169.904 83.4095ZM206.705 70.1587L207.297 61.2647L207.286 61.2639L207.275 61.2632L206.705 70.1587ZM251.765 109.821L260.263 107.131L260.146 106.761L259.997 106.403L251.765 109.821ZM265.199 161.094L273.982 159.574L273.98 159.563L265.199 161.094ZM268.094 178.999L259.292 180.411L260.485 187.842L268.01 187.912L268.094 178.999ZM280.231 184.658L273.195 190.13L273.198 190.135L280.231 184.658ZM279.589 189.819L274.115 182.783L274.104 182.792L274.093 182.8L279.589 189.819ZM274.428 189.176L267.391 194.647L267.399 194.656L267.406 194.666L274.428 189.176ZM265.86 186.533L267.965 195.194L268.561 195.049L269.132 194.824L265.86 186.533ZM261.371 183.538L270.173 182.132L270.173 182.129L261.371 183.538ZM257.953 162.354L266.734 160.826L266.734 160.824L257.953 162.354ZM244.864 112.339L253.363 109.654L253.245 109.278L253.093 108.915L244.864 112.339ZM206.217 77.4969L206.809 68.6029L206.795 68.602L206.217 77.4969ZM174.389 89.5107L182.093 93.9946L182.096 93.9908L174.389 89.5107ZM169.94 91.114L166.86 99.4786L166.878 99.4852L166.896 99.4918L169.94 91.114ZM165.412 90.5915L169.246 98.6385L169.253 98.6351L169.26 98.6316L165.412 90.5915ZM156.309 108.786L147.872 105.908L147.77 106.206L147.69 106.511L156.309 108.786ZM141.191 184.238L132.301 184.898L132.302 184.907L132.303 184.916L141.191 184.238ZM139.787 187.409L134.313 180.374L134.305 180.38L134.298 180.386L139.787 187.409ZM136.368 188.001L139.15 179.533L139.134 179.528L139.119 179.523L136.368 188.001ZM126.015 188.199L119.174 182.484L119.162 182.498L119.15 182.513L126.015 188.199ZM130.608 205.565L138.45 201.328L138.445 201.319L130.608 205.565ZM129.125 210.553L133.332 218.412L133.356 218.399L133.38 218.386L129.125 210.553ZM127.376 210.995V202.081C129.203 202.081 131.023 203.058 131.981 204.83L124.14 209.07L116.3 213.309C118.586 217.538 122.934 219.909 127.376 219.909V210.995ZM124.14 209.07L131.979 204.825C128.87 199.085 127.441 194.977 127.036 192.214C126.841 190.892 126.917 190.106 127.003 189.707C127.077 189.366 127.165 189.255 127.216 189.194L120.381 183.473L113.545 177.752C109.364 182.748 108.531 188.907 109.397 194.805C110.239 200.534 112.752 206.759 116.302 213.314L124.14 209.07ZM120.381 183.473L127.212 189.198C127.233 189.174 127.446 188.89 128.476 188.696C129.576 188.488 131.022 188.511 132.58 188.737L133.854 179.914L135.128 171.092C130.646 170.445 120.253 169.747 113.549 177.748L120.381 183.473ZM133.854 179.914L142.756 180.382C143.356 168.958 148.164 145.751 157.892 108.936L149.274 106.659L140.656 104.382C131.013 140.874 125.666 165.87 124.953 179.446L133.854 179.914ZM149.274 106.659L157.712 109.531C160.204 102.208 162.054 97.775 163.632 95.0148C165.119 92.4156 165.932 92.0702 166.084 91.998L162.248 83.9515L158.413 75.9051C153.882 78.0649 150.727 81.6697 148.157 86.1646C145.678 90.4985 143.382 96.3033 140.835 103.788L149.274 106.659ZM162.248 83.9515L166.08 91.9995C166.19 91.9475 166.309 91.9108 166.529 91.9024C166.786 91.8925 167.193 91.924 167.802 92.0717L169.904 83.4095L172.007 74.7474C168.539 73.9056 163.579 73.4454 158.416 75.9035L162.248 83.9515ZM169.904 83.4095L176.364 89.5517C178.213 87.607 182.241 84.6689 187.816 82.3507C193.294 80.0725 199.678 78.6404 206.135 79.0542L206.705 70.1587L207.275 61.2632C197.533 60.6389 188.401 62.7997 180.97 65.8901C173.635 68.9405 167.363 73.1469 163.445 77.2674L169.904 83.4095ZM206.705 70.1587L206.114 79.0528C211.369 79.4024 217.698 81.0501 224.104 85.7981C230.534 90.5649 237.552 98.8366 243.533 113.24L251.765 109.821L259.997 106.403C253.036 89.6397 244.23 78.526 234.72 71.4762C225.184 64.4075 215.454 61.8072 207.297 61.2647L206.705 70.1587ZM251.765 109.821L243.267 112.512C249.896 133.448 254.246 150.171 256.418 162.625L265.199 161.094L273.98 159.563C271.613 145.985 267 128.407 260.263 107.131L251.765 109.821ZM265.199 161.094L256.416 162.614C256.662 164.037 258.383 174.741 259.292 180.411L268.094 178.999L276.895 177.586C276.002 172.024 274.253 161.139 273.982 159.574L265.199 161.094ZM268.094 178.999L268.01 187.912C270.076 187.931 271.917 188.487 273.195 190.13L280.231 184.658L287.268 179.187C281.313 171.529 273.057 170.131 268.177 170.085L268.094 178.999ZM280.231 184.658L273.198 190.135C271.419 187.85 271.835 184.557 274.115 182.783L279.589 189.819L285.062 196.854C290.546 192.587 291.543 184.677 287.264 179.182L280.231 184.658ZM279.589 189.819L274.093 182.8C276.424 180.975 279.711 181.461 281.45 183.685L274.428 189.176L267.406 194.666C271.644 200.086 279.543 201.175 285.084 196.837L279.589 189.819ZM274.428 189.176L281.465 183.705C277.919 179.143 273.056 177.853 269.954 177.533C268.355 177.368 266.96 177.425 265.954 177.521C265.442 177.57 265.001 177.632 264.648 177.691C264.473 177.72 264.308 177.75 264.157 177.781C264.084 177.796 263.996 177.815 263.898 177.837C263.854 177.847 263.775 177.865 263.679 177.89C263.634 177.901 263.547 177.923 263.439 177.954C263.385 177.969 263.296 177.995 263.187 178.029C263.107 178.054 262.876 178.127 262.588 178.241L265.86 186.533L269.132 194.824C268.844 194.938 268.614 195.01 268.535 195.035C268.427 195.07 268.339 195.095 268.286 195.11C268.18 195.14 268.096 195.161 268.054 195.172C267.965 195.194 267.896 195.21 267.863 195.218C267.79 195.234 267.736 195.246 267.707 195.252C267.644 195.264 267.607 195.271 267.593 195.273C267.564 195.278 267.586 195.273 267.646 195.268C267.783 195.255 267.965 195.25 268.127 195.267C268.295 195.284 268.273 195.307 268.121 195.237C267.923 195.146 267.628 194.952 267.391 194.647L274.428 189.176ZM265.86 186.533L263.755 177.871C265.221 177.515 266.713 177.807 267.892 178.59L262.962 186.016L258.032 193.442C260.92 195.359 264.517 196.032 267.965 195.194L265.86 186.533ZM262.962 186.016L267.892 178.59C269.126 179.408 269.945 180.7 270.173 182.132L261.371 183.538L252.569 184.944C253.121 188.401 255.089 191.488 258.032 193.442L262.962 186.016ZM261.371 183.538C270.173 182.129 270.173 182.129 270.173 182.129C270.173 182.129 270.173 182.129 270.173 182.128C270.173 182.128 270.173 182.127 270.172 182.126C270.172 182.123 270.171 182.12 270.171 182.115C270.169 182.106 270.167 182.092 270.164 182.074C270.158 182.038 270.15 181.984 270.138 181.913C270.116 181.772 270.083 181.565 270.04 181.301C269.956 180.773 269.835 180.016 269.688 179.101C269.395 177.273 269 174.813 268.595 172.289C267.792 167.296 266.923 161.911 266.734 160.826L257.953 162.354L249.171 163.883C249.334 164.819 250.174 170.026 250.993 175.119C251.398 177.639 251.792 180.096 252.085 181.923C252.232 182.837 252.353 183.593 252.437 184.12C252.479 184.384 252.513 184.591 252.535 184.731C252.546 184.802 252.555 184.855 252.561 184.892C252.564 184.91 252.566 184.924 252.567 184.933C252.568 184.937 252.569 184.941 252.569 184.943C252.569 184.944 252.569 184.945 252.569 184.946C252.569 184.946 252.569 184.946 252.57 184.946C252.57 184.946 252.57 184.947 261.371 183.538ZM257.953 162.354L266.734 160.824C264.424 147.568 259.89 130.312 253.363 109.654L244.864 112.339L236.364 115.024C242.786 135.353 247.057 151.753 249.171 163.884L257.953 162.354ZM244.864 112.339L253.093 108.915C243.332 85.4546 228.102 70.0196 206.809 68.6029L206.217 77.4969L205.625 86.391C217.304 87.1681 228.153 95.3797 236.634 115.763L244.864 112.339ZM206.217 77.4969L206.795 68.602C197.025 67.9674 188.058 70.6035 181.376 73.7415C178.006 75.3247 175.054 77.1107 172.703 78.8517C170.663 80.3623 168.151 82.5061 166.683 85.0307L174.389 89.5107L182.096 93.9908C181.644 94.7674 181.652 94.4077 183.312 93.1784C184.661 92.1793 186.59 90.9888 188.955 89.8778C193.746 87.6274 199.677 86.0046 205.639 86.3919L206.217 77.4969ZM174.389 89.5107L166.686 85.0269C167.982 82.8001 170.647 81.887 172.985 82.7362L169.94 91.114L166.896 99.4918C172.573 101.554 179.002 99.3058 182.093 93.9946L174.389 89.5107ZM169.94 91.114L173.021 82.7494C169.426 81.4257 165.492 80.671 161.564 82.5513L165.412 90.5915L169.26 98.6316C168.861 98.823 168.335 99.0208 167.719 99.1411C167.128 99.2566 166.649 99.2624 166.343 99.2439C165.831 99.213 165.881 99.118 166.86 99.4786L169.94 91.114ZM165.412 90.5915L161.578 82.5444C158.631 83.9483 156.757 86.3785 155.744 87.8548C154.566 89.5718 153.545 91.5354 152.671 93.4269C150.915 97.2257 149.276 101.791 147.872 105.908L156.309 108.786L164.745 111.663C166.131 107.6 167.518 103.795 168.853 100.906C169.525 99.4529 170.065 98.4927 170.444 97.9402C170.989 97.1469 170.666 97.9618 169.246 98.6385L165.412 90.5915ZM156.309 108.786L147.69 106.511C142.317 126.87 138.312 143.571 135.733 156.436C133.23 168.923 131.848 178.796 132.301 184.898L141.191 184.238L150.08 183.578C149.833 180.257 150.658 172.683 153.213 159.94C155.692 147.573 159.596 131.259 164.927 111.06L156.309 108.786ZM141.191 184.238L132.303 184.916C132.169 183.158 132.924 181.454 134.313 180.374L139.787 187.409L145.26 194.444C148.588 191.855 150.399 187.767 150.078 183.56L141.191 184.238ZM139.787 187.409L134.298 180.386C135.703 179.287 137.523 178.999 139.15 179.533L136.368 188.001L133.586 196.47C137.532 197.766 141.93 197.047 145.276 194.432L139.787 187.409ZM136.368 188.001L139.119 179.523C136.671 178.729 133.607 178.157 130.707 178.092C129.255 178.06 127.49 178.145 125.704 178.579C124.074 178.975 121.309 179.929 119.174 182.484L126.015 188.199L132.855 193.914C132.14 194.77 131.389 195.258 130.896 195.516C130.408 195.772 130.043 195.871 129.912 195.903C129.686 195.958 129.784 195.904 130.311 195.915C130.783 195.926 131.378 195.984 132.019 196.096C132.66 196.208 133.219 196.351 133.617 196.48L136.368 188.001ZM126.015 188.199L119.15 182.513C116.965 185.15 116.072 188.84 116.598 193.218C117.102 197.399 118.929 202.721 122.771 209.811L130.608 205.565L138.445 201.319C135.137 195.212 134.425 192.143 134.298 191.088C134.195 190.228 134.579 191.833 132.879 193.886L126.015 188.199ZM130.608 205.565L122.765 209.802C121.393 207.261 122.34 204.095 124.869 202.721L129.125 210.553L133.38 218.386C139.479 215.072 141.755 207.445 138.45 201.328L130.608 205.565ZM129.125 210.553L124.917 202.695C125.671 202.291 126.518 202.081 127.376 202.081V210.995V219.909C129.419 219.909 131.466 219.411 133.332 218.412L129.125 210.553Z" fill="#9B7FD4" mask="url(#path-11-inside-4_37_2)"/>
<mask id="path-13-inside-5_37_2" fill="white">
<path d="M129.517 257.653C127.735 257.656 126.17 256.356 125.89 254.539C125.739 253.548 122.313 230.149 135.381 214.916C142.451 206.674 152.851 202.498 166.296 202.498C167.021 202.498 167.732 202.713 168.335 203.116C179.963 210.869 189.203 215.684 199.247 215.709H199.39C201.42 215.709 203.064 217.354 203.068 219.383C203.071 221.437 201.448 223.082 199.322 223.064C199.294 223.064 199.272 223.064 199.243 223.064H198.931C198.873 223.064 198.82 223.064 198.762 223.06C187.364 222.902 177.374 217.9 165.204 209.863C154.553 210.071 146.412 213.372 140.986 219.677C130.116 232.314 133.125 253.214 133.158 253.426C133.463 255.43 132.084 257.304 130.077 257.613C129.89 257.641 129.703 257.653 129.517 257.653Z"/>
</mask>
<path d="M129.517 257.653C127.735 257.656 126.17 256.356 125.89 254.539C125.739 253.548 122.313 230.149 135.381 214.916C142.451 206.674 152.851 202.498 166.296 202.498C167.021 202.498 167.732 202.713 168.335 203.116C179.963 210.869 189.203 215.684 199.247 215.709H199.39C201.42 215.709 203.064 217.354 203.068 219.383C203.071 221.437 201.448 223.082 199.322 223.064C199.294 223.064 199.272 223.064 199.243 223.064H198.931C198.873 223.064 198.82 223.064 198.762 223.06C187.364 222.902 177.374 217.9 165.204 209.863C154.553 210.071 146.412 213.372 140.986 219.677C130.116 232.314 133.125 253.214 133.158 253.426C133.463 255.43 132.084 257.304 130.077 257.613C129.89 257.641 129.703 257.653 129.517 257.653Z" fill="#9B7FD4"/>
<path d="M129.517 257.653V248.739H129.508L129.5 248.739L129.517 257.653ZM125.89 254.539L117.078 255.882L117.08 255.896L125.89 254.539ZM135.381 214.916L128.616 209.111L128.615 209.112L135.381 214.916ZM168.335 203.116L163.389 210.531L163.39 210.532L168.335 203.116ZM199.247 215.709L199.225 224.623L199.236 224.623H199.247V215.709ZM203.068 219.383L194.154 219.397L194.154 219.399L203.068 219.383ZM199.322 223.064L199.398 214.15L199.36 214.15H199.322V223.064ZM198.762 223.06L199.329 214.164L199.107 214.15L198.885 214.147L198.762 223.06ZM165.204 209.863L170.116 202.425L167.802 200.897L165.03 200.951L165.204 209.863ZM140.986 219.677L134.23 213.863L134.228 213.865L140.986 219.677ZM133.158 253.426L141.97 252.084L141.969 252.079L133.158 253.426ZM130.077 257.613L131.432 266.423L131.432 266.423L130.077 257.613ZM129.517 257.653L129.5 248.739C132.067 248.734 134.3 250.589 134.7 253.182L125.89 254.539L117.08 255.896C118.039 262.122 123.403 266.578 129.533 266.566L129.517 257.653ZM125.89 254.539L134.702 253.196C134.685 253.086 133.89 247.79 134.551 240.922C135.222 233.944 137.297 226.371 142.146 220.719L135.381 214.916L128.615 209.112C120.396 218.693 117.65 230.437 116.805 239.214C115.95 248.102 116.943 255 117.078 255.882L125.89 254.539ZM135.381 214.916L142.146 220.72C147.129 214.912 154.778 211.412 166.296 211.412V202.498V193.584C150.924 193.584 137.774 198.437 128.616 209.111L135.381 214.916ZM166.296 202.498V211.412C165.261 211.412 164.251 211.106 163.389 210.531L168.335 203.116L173.282 195.7C171.214 194.321 168.781 193.584 166.296 193.584V202.498ZM168.335 203.116L163.39 210.532C175.081 218.327 186.285 224.591 199.225 224.623L199.247 215.709L199.269 206.796C192.121 206.778 184.845 203.41 173.28 195.699L168.335 203.116ZM199.247 215.709V224.623H199.39V215.709V206.796H199.247V215.709ZM199.39 215.709V224.623C196.494 224.623 194.159 222.278 194.154 219.397L203.068 219.383L211.981 219.368C211.97 212.43 206.345 206.796 199.39 206.796V215.709ZM203.068 219.383L194.154 219.399C194.149 216.483 196.576 214.126 199.398 214.15L199.322 223.064L199.247 231.977C206.32 232.037 211.994 226.39 211.981 219.367L203.068 219.383ZM199.322 223.064V214.15C199.322 214.15 199.322 214.15 199.322 214.15C199.322 214.15 199.322 214.15 199.322 214.15C199.322 214.15 199.322 214.15 199.322 214.15C199.322 214.15 199.322 214.15 199.322 214.15C199.322 214.15 199.322 214.15 199.322 214.15C199.322 214.15 199.321 214.15 199.321 214.15C199.321 214.15 199.321 214.15 199.321 214.15C199.321 214.15 199.321 214.15 199.321 214.15C199.321 214.15 199.321 214.15 199.321 214.15C199.321 214.15 199.321 214.15 199.321 214.15C199.321 214.15 199.321 214.15 199.321 214.15C199.321 214.15 199.32 214.15 199.32 214.15C199.32 214.15 199.32 214.15 199.32 214.15C199.32 214.15 199.32 214.15 199.32 214.15C199.32 214.15 199.32 214.15 199.32 214.15C199.32 214.15 199.32 214.15 199.32 214.15C199.32 214.15 199.32 214.15 199.32 214.15C199.32 214.15 199.319 214.15 199.319 214.15C199.319 214.15 199.319 214.15 199.319 214.15C199.319 214.15 199.319 214.15 199.319 214.15C199.319 214.15 199.319 214.15 199.319 214.15C199.319 214.15 199.319 214.15 199.319 214.15C199.319 214.15 199.319 214.15 199.319 214.15C199.319 214.15 199.318 214.15 199.318 214.15C199.318 214.15 199.318 214.15 199.318 214.15C199.318 214.15 199.318 214.15 199.318 214.15C199.318 214.15 199.318 214.15 199.318 214.15C199.318 214.15 199.318 214.15 199.318 214.15C199.318 214.15 199.318 214.15 199.318 214.15C199.318 214.15 199.318 214.15 199.317 214.15C199.317 214.15 199.317 214.15 199.317 214.15C199.317 214.15 199.317 214.15 199.317 214.15C199.317 214.15 199.317 214.15 199.317 214.15C199.317 214.15 199.317 214.15 199.317 214.15C199.317 214.15 199.317 214.15 199.317 214.15C199.317 214.15 199.317 214.15 199.316 214.15C199.316 214.15 199.316 214.15 199.316 214.15C199.316 214.15 199.316 214.15 199.316 214.15C199.316 214.15 199.316 214.15 199.316 214.15C199.316 214.15 199.316 214.15 199.316 214.15C199.316 214.15 199.316 214.15 199.316 214.15C199.316 214.15 199.316 214.15 199.315 214.15C199.315 214.15 199.315 214.15 199.315 214.15C199.315 214.15 199.315 214.15 199.315 214.15C199.315 214.15 199.315 214.15 199.315 214.15C199.315 214.15 199.315 214.15 199.315 214.15C199.315 214.15 199.315 214.15 199.315 214.15C199.315 214.15 199.315 214.15 199.315 214.15C199.314 214.15 199.314 214.15 199.314 214.15C199.314 214.15 199.314 214.15 199.314 214.15C199.314 214.15 199.314 214.15 199.314 214.15C199.314 214.15 199.314 214.15 199.314 214.15C199.314 214.15 199.314 214.15 199.314 214.15C199.314 214.15 199.314 214.15 199.314 214.15C199.314 214.15 199.313 214.15 199.313 214.15C199.313 214.15 199.313 214.15 199.313 214.15C199.313 214.15 199.313 214.15 199.313 214.15C199.313 214.15 199.313 214.15 199.313 214.15C199.313 214.15 199.313 214.15 199.313 214.15C199.313 214.15 199.313 214.15 199.313 214.15C199.313 214.15 199.312 214.15 199.312 214.15C199.312 214.15 199.312 214.15 199.312 214.15C199.312 214.15 199.312 214.15 199.312 214.15C199.312 214.15 199.312 214.15 199.312 214.15C199.312 214.15 199.312 214.15 199.312 214.15C199.312 214.15 199.312 214.15 199.312 214.15C199.312 214.15 199.312 214.15 199.311 214.15C199.311 214.15 199.311 214.15 199.311 214.15C199.311 214.15 199.311 214.15 199.311 214.15C199.311 214.15 199.311 214.15 199.311 214.15C199.311 214.15 199.311 214.15 199.311 214.15C199.311 214.15 199.311 214.15 199.311 214.15C199.311 214.15 199.311 214.15 199.311 214.15C199.31 214.15 199.31 214.15 199.31 214.15C199.31 214.15 199.31 214.15 199.31 214.15C199.31 214.15 199.31 214.15 199.31 214.15C199.31 214.15 199.31 214.15 199.31 214.15C199.31 214.15 199.31 214.15 199.31 214.15C199.31 214.15 199.31 214.15 199.31 214.15C199.31 214.15 199.309 214.15 199.309 214.15C199.309 214.15 199.309 214.15 199.309 214.15C199.309 214.15 199.309 214.15 199.309 214.15C199.309 214.15 199.309 214.15 199.309 214.15C199.309 214.15 199.309 214.15 199.309 214.15C199.309 214.15 199.309 214.15 199.309 214.15C199.309 214.15 199.309 214.15 199.308 214.15C199.308 214.15 199.308 214.15 199.308 214.15C199.308 214.15 199.308 214.15 199.308 214.15C199.308 214.15 199.308 214.15 199.308 214.15C199.308 214.15 199.308 214.15 199.308 214.15C199.308 214.15 199.308 214.15 199.308 214.15C199.308 214.15 199.308 214.15 199.308 214.15C199.308 214.15 199.307 214.15 199.307 214.15C199.307 214.15 199.307 214.15 199.307 214.15C199.307 214.15 199.307 214.15 199.307 214.15C199.307 214.15 199.307 214.15 199.307 214.15C199.307 214.15 199.307 214.15 199.307 214.15C199.307 214.15 199.307 214.15 199.307 214.15C199.307 214.15 199.307 214.15 199.306 214.15C199.306 214.15 199.306 214.15 199.306 214.15C199.306 214.15 199.306 214.15 199.306 214.15C199.306 214.15 199.306 214.15 199.306 214.15C199.306 214.15 199.306 214.15 199.306 214.15C199.306 214.15 199.306 214.15 199.306 214.15C199.306 214.15 199.306 214.15 199.306 214.15C199.305 214.15 199.305 214.15 199.305 214.15C199.305 214.15 199.305 214.15 199.305 214.15C199.305 214.15 199.305 214.15 199.305 214.15C199.305 214.15 199.305 214.15 199.305 214.15C199.305 214.15 199.305 214.15 199.305 214.15C199.305 214.15 199.305 214.15 199.305 214.15C199.305 214.15 199.305 214.15 199.304 214.15C199.304 214.15 199.304 214.15 199.304 214.15C199.304 214.15 199.304 214.15 199.304 214.15C199.304 214.15 199.304 214.15 199.304 214.15C199.304 214.15 199.304 214.15 199.304 214.15C199.304 214.15 199.304 214.15 199.304 214.15C199.304 214.15 199.304 214.15 199.304 214.15C199.303 214.15 199.303 214.15 199.303 214.15C199.303 214.15 199.303 214.15 199.303 214.15C199.303 214.15 199.303 214.15 199.303 214.15C199.303 214.15 199.303 214.15 199.303 214.15C199.303 214.15 199.303 214.15 199.303 214.15C199.303 214.15 199.303 214.15 199.303 214.15C199.303 214.15 199.303 214.15 199.302 214.15C199.302 214.15 199.302 214.15 199.302 214.15C199.302 214.15 199.302 214.15 199.302 214.15C199.302 214.15 199.302 214.15 199.302 214.15C199.302 214.15 199.302 214.15 199.302 214.15C199.302 214.15 199.302 214.15 199.302 214.15C199.302 214.15 199.302 214.15 199.302 214.15C199.301 214.15 199.301 214.15 199.301 214.15C199.301 214.15 199.301 214.15 199.301 214.15C199.301 214.15 199.301 214.15 199.301 214.15C199.301 214.15 199.301 214.15 199.301 214.15C199.301 214.15 199.301 214.15 199.301 214.15C199.301 214.15 199.301 214.15 199.301 214.15C199.301 214.15 199.301 214.15 199.3 214.15C199.3 214.15 199.3 214.15 199.3 214.15C199.3 214.15 199.3 214.15 199.3 214.15C199.3 214.15 199.3 214.15 199.3 214.15C199.3 214.15 199.3 214.15 199.3 214.15C199.3 214.15 199.3 214.15 199.3 214.15C199.3 214.15 199.3 214.15 199.3 214.15C199.3 214.15 199.299 214.15 199.299 214.15C199.299 214.15 199.299 214.15 199.299 214.15C199.299 214.15 199.299 214.15 199.299 214.15C199.299 214.15 199.299 214.15 199.299 214.15C199.299 214.15 199.299 214.15 199.299 214.15C199.299 214.15 199.299 214.15 199.299 214.15C199.299 214.15 199.299 214.15 199.299 214.15C199.298 214.15 199.298 214.15 199.298 214.15C199.298 214.15 199.298 214.15 199.298 214.15C199.298 214.15 199.298 214.15 199.298 214.15C199.298 214.15 199.298 214.15 199.298 214.15C199.298 214.15 199.298 214.15 199.298 214.15C199.298 214.15 199.298 214.15 199.298 214.15C199.298 214.15 199.298 214.15 199.297 214.15C199.297 214.15 199.297 214.15 199.297 214.15C199.297 214.15 199.297 214.15 199.297 214.15C199.297 214.15 199.297 214.15 199.297 214.15C199.297 214.15 199.297 214.15 199.297 214.15C199.297 214.15 199.297 214.15 199.297 214.15C199.297 214.15 199.297 214.15 199.297 214.15C199.297 214.15 199.296 214.15 199.296 214.15C199.296 214.15 199.296 214.15 199.296 214.15C199.296 214.15 199.296 214.15 199.296 214.15C199.296 214.15 199.296 214.15 199.296 214.15C199.296 214.15 199.296 214.15 199.296 214.15C199.296 214.15 199.296 214.15 199.296 214.15C199.296 214.15 199.296 214.15 199.296 214.15C199.295 214.15 199.295 214.15 199.295 214.15C199.295 214.15 199.295 214.15 199.295 214.15C199.295 214.15 199.295 214.15 199.295 214.15C199.295 214.15 199.295 214.15 199.295 214.15C199.295 214.15 199.295 214.15 199.295 214.15C199.295 214.15 199.295 214.15 199.295 214.15C199.295 214.15 199.295 214.15 199.294 214.15C199.294 214.15 199.294 214.15 199.294 214.15C199.294 214.15 199.294 214.15 199.294 214.15C199.294 214.15 199.294 214.15 199.294 214.15C199.294 214.15 199.294 214.15 199.294 214.15C199.294 214.15 199.294 214.15 199.294 214.15C199.294 214.15 199.294 214.15 199.294 214.15C199.294 214.15 199.293 214.15 199.293 214.15C199.293 214.15 199.293 214.15 199.293 214.15C199.293 214.15 199.293 214.15 199.293 214.15C199.293 214.15 199.293 214.15 199.293 214.15C199.293 214.15 199.293 214.15 199.293 214.15C199.293 214.15 199.293 214.15 199.293 214.15C199.293 214.15 199.293 214.15 199.293 214.15C199.292 214.15 199.292 214.15 199.292 214.15C199.292 214.15 199.292 214.15 199.292 214.15C199.292 214.15 199.292 214.15 199.292 214.15C199.292 214.15 199.292 214.15 199.292 214.15C199.292 214.15 199.292 214.15 199.292 214.15C199.292 214.15 199.292 214.15 199.292 214.15C199.292 214.15 199.292 214.15 199.291 214.15C199.291 214.15 199.291 214.15 199.291 214.15C199.291 214.15 199.291 214.15 199.291 214.15C199.291 214.15 199.291 214.15 199.291 214.15C199.291 214.15 199.291 214.15 199.291 214.15C199.291 214.15 199.291 214.15 199.291 214.15C199.291 214.15 199.291 214.15 199.291 214.15C199.291 214.15 199.29 214.15 199.29 214.15C199.29 214.15 199.29 214.15 199.29 214.15C199.29 214.15 199.29 214.15 199.29 214.15C199.29 214.15 199.29 214.15 199.29 214.15C199.29 214.15 199.29 214.15 199.29 214.15C199.29 214.15 199.29 214.15 199.29 214.15C199.29 214.15 199.29 214.15 199.29 214.15C199.289 214.15 199.289 214.15 199.289 214.15C199.289 214.15 199.289 214.15 199.289 214.15C199.289 214.15 199.289 214.15 199.289 214.15C199.289 214.15 199.289 214.15 199.289 214.15C199.289 214.15 199.289 214.15 199.289 214.15C199.289 214.15 199.289 214.15 199.289 214.15C199.289 214.15 199.289 214.15 199.289 214.15C199.288 214.15 199.288 214.15 199.288 214.15C199.288 214.15 199.288 214.15 199.288 214.15C199.288 214.15 199.288 214.15 199.288 214.15C199.288 214.15 199.288 214.15 199.288 214.15C199.288 214.15 199.288 214.15 199.288 214.15C199.288 214.15 199.288 214.15 199.288 214.15C199.288 214.15 199.288 214.15 199.287 214.15C199.287 214.15 199.287 214.15 199.287 214.15C199.287 214.15 199.287 214.15 199.287 214.15C199.287 214.15 199.287 214.15 199.287 214.15C199.287 214.15 199.287 214.15 199.287 214.15C199.287 214.15 199.287 214.15 199.287 214.15C199.287 214.15 199.287 214.15 199.287 214.15C199.287 214.15 199.286 214.15 199.286 214.15C199.286 214.15 199.286 214.15 199.286 214.15C199.286 214.15 199.286 214.15 199.286 214.15C199.286 214.15 199.286 214.15 199.286 214.15C199.286 214.15 199.286 214.15 199.286 214.15C199.286 214.15 199.286 214.15 199.286 214.15C199.286 214.15 199.286 214.15 199.286 214.15C199.286 214.15 199.285 214.15 199.285 214.15C199.285 214.15 199.285 214.15 199.285 214.15C199.285 214.15 199.285 214.15 199.285 214.15C199.285 214.15 199.285 214.15 199.285 214.15C199.285 214.15 199.285 214.15 199.285 214.15C199.285 214.15 199.285 214.15 199.285 214.15C199.285 214.15 199.285 214.15 199.285 214.15C199.284 214.15 199.284 214.15 199.284 214.15C199.284 214.15 199.284 214.15 199.284 214.15C199.284 214.15 199.284 214.15 199.284 214.15C199.284 214.15 199.284 214.15 199.284 214.15C199.284 214.15 199.284 214.15 199.284 214.15C199.284 214.15 199.284 214.15 199.284 214.15C199.284 214.15 199.284 214.15 199.283 214.15C199.283 214.15 199.283 214.15 199.283 214.15C199.283 214.15 199.283 214.15 199.283 214.15C199.283 214.15 199.283 214.15 199.283 214.15C199.283 214.15 199.283 214.15 199.283 214.15C199.283 214.15 199.283 214.15 199.283 214.15C199.283 214.15 199.283 214.15 199.283 214.15C199.283 214.15 199.283 214.15 199.282 214.15C199.282 214.15 199.282 214.15 199.282 214.15C199.282 214.15 199.282 214.15 199.282 214.15C199.282 214.15 199.282 214.15 199.282 214.15C199.282 214.15 199.282 214.15 199.282 214.15C199.282 214.15 199.282 214.15 199.282 214.15C199.282 214.15 199.282 214.15 199.282 214.15C199.282 214.15 199.281 214.15 199.281 214.15C199.281 214.15 199.281 214.15 199.281 214.15C199.281 214.15 199.281 214.15 199.281 214.15C199.281 214.15 199.281 214.15 199.281 214.15C199.281 214.15 199.281 214.15 199.281 214.15C199.281 214.15 199.281 214.15 199.281 214.15C199.281 214.15 199.281 214.15 199.281 214.15C199.28 214.15 199.28 214.15 199.28 214.15C199.28 214.15 199.28 214.15 199.28 214.15C199.28 214.15 199.28 214.15 199.28 214.15C199.28 214.15 199.28 214.15 199.28 214.15C199.28 214.15 199.28 214.15 199.28 214.15C199.28 214.15 199.28 214.15 199.28 214.15C199.28 214.15 199.28 214.15 199.279 214.15C199.279 214.15 199.279 214.15 199.279 214.15C199.279 214.15 199.279 214.15 199.279 214.15C199.279 214.15 199.279 214.15 199.279 214.15C199.279 214.15 199.279 214.15 199.279 214.15C199.279 214.15 199.279 214.15 199.279 214.15C199.279 214.15 199.279 214.15 199.279 214.15C199.279 214.15 199.279 214.15 199.278 214.15C199.278 214.15 199.278 214.15 199.278 214.15C199.278 214.15 199.278 214.15 199.278 214.15C199.278 214.15 199.278 214.15 199.278 214.15C199.278 214.15 199.278 214.15 199.278 214.15C199.278 214.15 199.278 214.15 199.278 214.15C199.278 214.15 199.278 214.15 199.278 214.15C199.278 214.15 199.277 214.15 199.277 214.15C199.277 214.15 199.277 214.15 199.277 214.15C199.277 214.15 199.277 214.15 199.277 214.15C199.277 214.15 199.277 214.15 199.277 214.15C199.277 214.15 199.277 214.15 199.277 214.15C199.277 214.15 199.277 214.15 199.277 214.15C199.277 214.15 199.277 214.15 199.277 214.15C199.276 214.15 199.276 214.15 199.276 214.15C199.276 214.15 199.276 214.15 199.276 214.15C199.276 214.15 199.276 214.15 199.276 214.15C199.276 214.15 199.276 214.15 199.276 214.15C199.276 214.15 199.276 214.15 199.276 214.15C199.276 214.15 199.276 214.15 199.276 214.15C199.276 214.15 199.276 214.15 199.276 214.15C199.275 214.15 199.275 214.15 199.275 214.15C199.275 214.15 199.275 214.15 199.275 214.15C199.275 214.15 199.275 214.15 199.275 214.15C199.275 214.15 199.275 214.15 199.275 214.15C199.275 214.15 199.275 214.15 199.275 214.15C199.275 214.15 199.275 214.15 199.275 214.15C199.275 214.15 199.275 214.15 199.274 214.15C199.274 214.15 199.274 214.15 199.274 214.15C199.274 214.15 199.274 214.15 199.274 214.15C199.274 214.15 199.274 214.15 199.274 214.15C199.274 214.15 199.274 214.15 199.274 214.15C199.274 214.15 199.274 214.15 199.274 214.15C199.274 214.15 199.274 214.15 199.274 214.15C199.274 214.15 199.273 214.15 199.273 214.15C199.273 214.15 199.273 214.15 199.273 214.15C199.273 214.15 199.273 214.15 199.273 214.15C199.273 214.15 199.273 214.15 199.273 214.15C199.273 214.15 199.273 214.15 199.273 214.15C199.273 214.15 199.273 214.15 199.273 214.15C199.273 214.15 199.273 214.15 199.273 214.15C199.272 214.15 199.272 214.15 199.272 214.15C199.272 214.15 199.272 214.15 199.272 214.15C199.272 214.15 199.272 214.15 199.272 214.15C199.272 214.15 199.272 214.15 199.272 214.15C199.272 214.15 199.272 214.15 199.272 214.15C199.272 214.15 199.272 214.15 199.272 214.15C199.272 214.15 199.272 214.15 199.271 214.15C199.271 214.15 199.271 214.15 199.271 214.15C199.271 214.15 199.271 214.15 199.271 214.15C199.271 214.15 199.271 214.15 199.271 214.15C199.271 214.15 199.271 214.15 199.271 214.15C199.271 214.15 199.271 214.15 199.271 214.15C199.271 214.15 199.271 214.15 199.271 214.15C199.271 214.15 199.27 214.15 199.27 214.15C199.27 214.15 199.27 214.15 199.27 214.15C199.27 214.15 199.27 214.15 199.27 214.15C199.27 214.15 199.27 214.15 199.27 214.15C199.27 214.15 199.27 214.15 199.27 214.15C199.27 214.15 199.27 214.15 199.27 214.15C199.27 214.15 199.27 214.15 199.27 214.15C199.269 214.15 199.269 214.15 199.269 214.15C199.269 214.15 199.269 214.15 199.269 214.15C199.269 214.15 199.269 214.15 199.269 214.15C199.269 214.15 199.269 214.15 199.269 214.15C199.269 214.15 199.269 214.15 199.269 214.15C199.269 214.15 199.269 214.15 199.269 214.15C199.269 214.15 199.269 214.15 199.268 214.15C199.268 214.15 199.268 214.15 199.268 214.15C199.268 214.15 199.268 214.15 199.268 214.15C199.268 214.15 199.268 214.15 199.268 214.15C199.268 214.15 199.268 214.15 199.268 214.15C199.268 214.15 199.268 214.15 199.268 214.15C199.268 214.15 199.268 214.15 199.268 214.15C199.268 214.15 199.267 214.15 199.267 214.15C199.267 214.15 199.267 214.15 199.267 214.15C199.267 214.15 199.267 214.15 199.267 214.15C199.267 214.15 199.267 214.15 199.267 214.15C199.267 214.15 199.267 214.15 199.267 214.15C199.267 214.15 199.267 214.15 199.267 214.15C199.267 214.15 199.267 214.15 199.267 214.15C199.266 214.15 199.266 214.15 199.266 214.15C199.266 214.15 199.266 214.15 199.266 214.15C199.266 214.15 199.266 214.15 199.266 214.15C199.266 214.15 199.266 214.15 199.266 214.15C199.266 214.15 199.266 214.15 199.266 214.15C199.266 214.15 199.266 214.15 199.266 214.15C199.266 214.15 199.266 214.15 199.265 214.15C199.265 214.15 199.265 214.15 199.265 214.15C199.265 214.15 199.265 214.15 199.265 214.15C199.265 214.15 199.265 214.15 199.265 214.15C199.265 214.15 199.265 214.15 199.265 214.15C199.265 214.15 199.265 214.15 199.265 214.15C199.265 214.15 199.265 214.15 199.265 214.15C199.264 214.15 199.264 214.15 199.264 214.15C199.264 214.15 199.264 214.15 199.264 214.15C199.264 214.15 199.264 214.15 199.264 214.15C199.264 214.15 199.264 214.15 199.264 214.15C199.264 214.15 199.264 214.15 199.264 214.15C199.264 214.15 199.264 214.15 199.264 214.15C199.264 214.15 199.264 214.15 199.263 214.15C199.263 214.15 199.263 214.15 199.263 214.15C199.263 214.15 199.263 214.15 199.263 214.15C199.263 214.15 199.263 214.15 199.263 214.15C199.263 214.15 199.263 214.15 199.263 214.15C199.263 214.15 199.263 214.15 199.263 214.15C199.263 214.15 199.263 214.15 199.263 214.15C199.263 214.15 199.262 214.15 199.262 214.15C199.262 214.15 199.262 214.15 199.262 214.15C199.262 214.15 199.262 214.15 199.262 214.15C199.262 214.15 199.262 214.15 199.262 214.15C199.262 214.15 199.262 214.15 199.262 214.15C199.262 214.15 199.262 214.15 199.262 214.15C199.262 214.15 199.262 214.15 199.261 214.15C199.261 214.15 199.261 214.15 199.261 214.15C199.261 214.15 199.261 214.15 199.261 214.15C199.261 214.15 199.261 214.15 199.261 214.15C199.261 214.15 199.261 214.15 199.261 214.15C199.261 214.15 199.261 214.15 199.261 214.15C199.261 214.15 199.261 214.15 199.261 214.15C199.261 214.15 199.26 214.15 199.26 214.15C199.26 214.15 199.26 214.15 199.26 214.15C199.26 214.15 199.26 214.15 199.26 214.15C199.26 214.15 199.26 214.15 199.26 214.15C199.26 214.15 199.26 214.15 199.26 214.15C199.26 214.15 199.26 214.15 199.26 214.15C199.26 214.15 199.26 214.15 199.259 214.15C199.259 214.15 199.259 214.15 199.259 214.15C199.259 214.15 199.259 214.15 199.259 214.15C199.259 214.15 199.259 214.15 199.259 214.15C199.259 214.15 199.259 214.15 199.259 214.15C199.259 214.15 199.259 214.15 199.259 214.15C199.259 214.15 199.259 214.15 199.259 214.15C199.258 214.15 199.258 214.15 199.258 214.15C199.258 214.15 199.258 214.15 199.258 214.15C199.258 214.15 199.258 214.15 199.258 214.15C199.258 214.15 199.258 214.15 199.258 214.15C199.258 214.15 199.258 214.15 199.258 214.15C199.258 214.15 199.258 214.15 199.258 214.15C199.258 214.15 199.258 214.15 199.257 214.15C199.257 214.15 199.257 214.15 199.257 214.15C199.257 214.15 199.257 214.15 199.257 214.15C199.257 214.15 199.257 214.15 199.257 214.15C199.257 214.15 199.257 214.15 199.257 214.15C199.257 214.15 199.257 214.15 199.257 214.15C199.257 214.15 199.257 214.15 199.257 214.15C199.256 214.15 199.256 214.15 199.256 214.15C199.256 214.15 199.256 214.15 199.256 214.15C199.256 214.15 199.256 214.15 199.256 214.15C199.256 214.15 199.256 214.15 199.256 214.15C199.256 214.15 199.256 214.15 199.256 214.15C199.256 214.15 199.256 214.15 199.256 214.15C199.256 214.15 199.255 214.15 199.255 214.15C199.255 214.15 199.255 214.15 199.255 214.15C199.255 214.15 199.255 214.15 199.255 214.15C199.255 214.15 199.255 214.15 199.255 214.15C199.255 214.15 199.255 214.15 199.255 214.15C199.255 214.15 199.255 214.15 199.255 214.15C199.255 214.15 199.255 214.15 199.254 214.15C199.254 214.15 199.254 214.15 199.254 214.15C199.254 214.15 199.254 214.15 199.254 214.15C199.254 214.15 199.254 214.15 199.254 214.15C199.254 214.15 199.254 214.15 199.254 214.15C199.254 214.15 199.254 214.15 199.254 214.15C199.254 214.15 199.254 214.15 199.254 214.15C199.253 214.15 199.253 214.15 199.253 214.15C199.253 214.15 199.253 214.15 199.253 214.15C199.253 214.15 199.253 214.15 199.253 214.15C199.253 214.15 199.253 214.15 199.253 214.15C199.253 214.15 199.253 214.15 199.253 214.15C199.253 214.15 199.253 214.15 199.253 214.15C199.252 214.15 199.252 214.15 199.252 214.15C199.252 214.15 199.252 214.15 199.252 214.15C199.252 214.15 199.252 214.15 199.252 214.15C199.252 214.15 199.252 214.15 199.252 214.15C199.252 214.15 199.252 214.15 199.252 214.15C199.252 214.15 199.252 214.15 199.252 214.15C199.252 214.15 199.251 214.15 199.251 214.15C199.251 214.15 199.251 214.15 199.251 214.15C199.251 214.15 199.251 214.15 199.251 214.15C199.251 214.15 199.251 214.15 199.251 214.15C199.251 214.15 199.251 214.15 199.251 214.15C199.251 214.15 199.251 214.15 199.251 214.15C199.251 214.15 199.251 214.15 199.25 214.15C199.25 214.15 199.25 214.15 199.25 214.15C199.25 214.15 199.25 214.15 199.25 214.15C199.25 214.15 199.25 214.15 199.25 214.15C199.25 214.15 199.25 214.15 199.25 214.15C199.25 214.15 199.25 214.15 199.25 214.15C199.25 214.15 199.25 214.15 199.249 214.15C199.249 214.15 199.249 214.15 199.249 214.15C199.249 214.15 199.249 214.15 199.249 214.15C199.249 214.15 199.249 214.15 199.249 214.15C199.249 214.15 199.249 214.15 199.249 214.15C199.249 214.15 199.249 214.15 199.249 214.15C199.249 214.15 199.249 214.15 199.249 214.15C199.248 214.15 199.248 214.15 199.248 214.15C199.248 214.15 199.248 214.15 199.248 214.15C199.248 214.15 199.248 214.15 199.248 214.15C199.248 214.15 199.248 214.15 199.248 214.15C199.248 214.15 199.248 214.15 199.248 214.15C199.248 214.15 199.248 214.15 199.248 214.15C199.247 214.15 199.247 214.15 199.247 214.15C199.247 214.15 199.247 214.15 199.247 214.15C199.247 214.15 199.247 214.15 199.247 214.15C199.247 214.15 199.247 214.15 199.247 214.15C199.247 214.15 199.247 214.15 199.247 214.15C199.247 214.15 199.247 214.15 199.247 214.15C199.246 214.15 199.246 214.15 199.246 214.15C199.246 214.15 199.246 214.15 199.246 214.15C199.246 214.15 199.246 214.15 199.246 214.15C199.246 214.15 199.246 214.15 199.246 214.15C199.246 214.15 199.246 214.15 199.246 214.15C199.246 214.15 199.246 214.15 199.246 214.15C199.245 214.15 199.245 214.15 199.245 214.15C199.245 214.15 199.245 214.15 199.245 214.15C199.245 214.15 199.245 214.15 199.245 214.15C199.245 214.15 199.245 214.15 199.245 214.15C199.245 214.15 199.245 214.15 199.245 214.15C199.245 214.15 199.245 214.15 199.245 214.15C199.244 214.15 199.244 214.15 199.244 214.15C199.244 214.15 199.244 214.15 199.244 214.15C199.244 214.15 199.244 214.15 199.244 214.15C199.244 214.15 199.244 214.15 199.244 214.15C199.244 214.15 199.244 214.15 199.244 214.15C199.244 214.15 199.244 214.15 199.244 214.15C199.243 214.15 199.243 214.15 199.243 214.15V223.064V231.977C199.243 231.977 199.243 231.977 199.244 231.977C199.244 231.977 199.244 231.977 199.244 231.977C199.244 231.977 199.244 231.977 199.244 231.977C199.244 231.977 199.244 231.977 199.244 231.977C199.244 231.977 199.244 231.977 199.244 231.977C199.244 231.977 199.244 231.977 199.244 231.977C199.244 231.977 199.244 231.977 199.245 231.977C199.245 231.977 199.245 231.977 199.245 231.977C199.245 231.977 199.245 231.977 199.245 231.977C199.245 231.977 199.245 231.977 199.245 231.977C199.245 231.977 199.245 231.977 199.245 231.977C199.245 231.977 199.245 231.977 199.245 231.977C199.245 231.977 199.245 231.977 199.246 231.977C199.246 231.977 199.246 231.977 199.246 231.977C199.246 231.977 199.246 231.977 199.246 231.977C199.246 231.977 199.246 231.977 199.246 231.977C199.246 231.977 199.246 231.977 199.246 231.977C199.246 231.977 199.246 231.977 199.246 231.977C199.246 231.977 199.246 231.977 199.247 231.977C199.247 231.977 199.247 231.977 199.247 231.977C199.247 231.977 199.247 231.977 199.247 231.977C199.247 231.977 199.247 231.977 199.247 231.977C199.247 231.977 199.247 231.977 199.247 231.977C199.247 231.977 199.247 231.977 199.247 231.977C199.247 231.977 199.247 231.977 199.248 231.977C199.248 231.977 199.248 231.977 199.248 231.977C199.248 231.977 199.248 231.977 199.248 231.977C199.248 231.977 199.248 231.977 199.248 231.977C199.248 231.977 199.248 231.977 199.248 231.977C199.248 231.977 199.248 231.977 199.248 231.977C199.248 231.977 199.248 231.977 199.249 231.977C199.249 231.977 199.249 231.977 199.249 231.977C199.249 231.977 199.249 231.977 199.249 231.977C199.249 231.977 199.249 231.977 199.249 231.977C199.249 231.977 199.249 231.977 199.249 231.977C199.249 231.977 199.249 231.977 199.249 231.977C199.249 231.977 199.249 231.977 199.249 231.977C199.25 231.977 199.25 231.977 199.25 231.977C199.25 231.977 199.25 231.977 199.25 231.977C199.25 231.977 199.25 231.977 199.25 231.977C199.25 231.977 199.25 231.977 199.25 231.977C199.25 231.977 199.25 231.977 199.25 231.977C199.25 231.977 199.25 231.977 199.25 231.977C199.251 231.977 199.251 231.977 199.251 231.977C199.251 231.977 199.251 231.977 199.251 231.977C199.251 231.977 199.251 231.977 199.251 231.977C199.251 231.977 199.251 231.977 199.251 231.977C199.251 231.977 199.251 231.977 199.251 231.977C199.251 231.977 199.251 231.977 199.251 231.977C199.251 231.977 199.252 231.977 199.252 231.977C199.252 231.977 199.252 231.977 199.252 231.977C199.252 231.977 199.252 231.977 199.252 231.977C199.252 231.977 199.252 231.977 199.252 231.977C199.252 231.977 199.252 231.977 199.252 231.977C199.252 231.977 199.252 231.977 199.252 231.977C199.252 231.977 199.252 231.977 199.253 231.977C199.253 231.977 199.253 231.977 199.253 231.977C199.253 231.977 199.253 231.977 199.253 231.977C199.253 231.977 199.253 231.977 199.253 231.977C199.253 231.977 199.253 231.977 199.253 231.977C199.253 231.977 199.253 231.977 199.253 231.977C199.253 231.977 199.253 231.977 199.254 231.977C199.254 231.977 199.254 231.977 199.254 231.977C199.254 231.977 199.254 231.977 199.254 231.977C199.254 231.977 199.254 231.977 199.254 231.977C199.254 231.977 199.254 231.977 199.254 231.977C199.254 231.977 199.254 231.977 199.254 231.977C199.254 231.977 199.254 231.977 199.254 231.977C199.255 231.977 199.255 231.977 199.255 231.977C199.255 231.977 199.255 231.977 199.255 231.977C199.255 231.977 199.255 231.977 199.255 231.977C199.255 231.977 199.255 231.977 199.255 231.977C199.255 231.977 199.255 231.977 199.255 231.977C199.255 231.977 199.255 231.977 199.255 231.977C199.255 231.977 199.256 231.977 199.256 231.977C199.256 231.977 199.256 231.977 199.256 231.977C199.256 231.977 199.256 231.977 199.256 231.977C199.256 231.977 199.256 231.977 199.256 231.977C199.256 231.977 199.256 231.977 199.256 231.977C199.256 231.977 199.256 231.977 199.256 231.977C199.256 231.977 199.256 231.977 199.257 231.977C199.257 231.977 199.257 231.977 199.257 231.977C199.257 231.977 199.257 231.977 199.257 231.977C199.257 231.977 199.257 231.977 199.257 231.977C199.257 231.977 199.257 231.977 199.257 231.977C199.257 231.977 199.257 231.977 199.257 231.977C199.257 231.977 199.257 231.977 199.257 231.977C199.258 231.977 199.258 231.977 199.258 231.977C199.258 231.977 199.258 231.977 199.258 231.977C199.258 231.977 199.258 231.977 199.258 231.977C199.258 231.977 199.258 231.977 199.258 231.977C199.258 231.977 199.258 231.977 199.258 231.977C199.258 231.977 199.258 231.977 199.258 231.977C199.258 231.977 199.258 231.977 199.259 231.977C199.259 231.977 199.259 231.977 199.259 231.977C199.259 231.977 199.259 231.977 199.259 231.977C199.259 231.977 199.259 231.977 199.259 231.977C199.259 231.977 199.259 231.977 199.259 231.977C199.259 231.977 199.259 231.977 199.259 231.977C199.259 231.977 199.259 231.977 199.259 231.977C199.26 231.977 199.26 231.977 199.26 231.977C199.26 231.977 199.26 231.977 199.26 231.977C199.26 231.977 199.26 231.977 199.26 231.977C199.26 231.977 199.26 231.977 199.26 231.977C199.26 231.977 199.26 231.977 199.26 231.977C199.26 231.977 199.26 231.977 199.26 231.977C199.26 231.977 199.261 231.977 199.261 231.977C199.261 231.977 199.261 231.977 199.261 231.977C199.261 231.977 199.261 231.977 199.261 231.977C199.261 231.977 199.261 231.977 199.261 231.977C199.261 231.977 199.261 231.977 199.261 231.977C199.261 231.977 199.261 231.977 199.261 231.977C199.261 231.977 199.261 231.977 199.261 231.977C199.262 231.977 199.262 231.977 199.262 231.977C199.262 231.977 199.262 231.977 199.262 231.977C199.262 231.977 199.262 231.977 199.262 231.977C199.262 231.977 199.262 231.977 199.262 231.977C199.262 231.977 199.262 231.977 199.262 231.977C199.262 231.977 199.262 231.977 199.262 231.977C199.262 231.977 199.263 231.977 199.263 231.977C199.263 231.977 199.263 231.977 199.263 231.977C199.263 231.977 199.263 231.977 199.263 231.977C199.263 231.977 199.263 231.977 199.263 231.977C199.263 231.977 199.263 231.977 199.263 231.977C199.263 231.977 199.263 231.977 199.263 231.977C199.263 231.977 199.263 231.977 199.263 231.977C199.264 231.977 199.264 231.977 199.264 231.977C199.264 231.977 199.264 231.977 199.264 231.977C199.264 231.977 199.264 231.977 199.264 231.977C199.264 231.977 199.264 231.977 199.264 231.977C199.264 231.977 199.264 231.977 199.264 231.977C199.264 231.977 199.264 231.977 199.264 231.977C199.264 231.977 199.264 231.977 199.265 231.977C199.265 231.977 199.265 231.977 199.265 231.977C199.265 231.977 199.265 231.977 199.265 231.977C199.265 231.977 199.265 231.977 199.265 231.977C199.265 231.977 199.265 231.977 199.265 231.977C199.265 231.977 199.265 231.977 199.265 231.977C199.265 231.977 199.265 231.977 199.265 231.977C199.266 231.977 199.266 231.977 199.266 231.977C199.266 231.977 199.266 231.977 199.266 231.977C199.266 231.977 199.266 231.977 199.266 231.977C199.266 231.977 199.266 231.977 199.266 231.977C199.266 231.977 199.266 231.977 199.266 231.977C199.266 231.977 199.266 231.977 199.266 231.977C199.266 231.977 199.266 231.977 199.267 231.977C199.267 231.977 199.267 231.977 199.267 231.977C199.267 231.977 199.267 231.977 199.267 231.977C199.267 231.977 199.267 231.977 199.267 231.977C199.267 231.977 199.267 231.977 199.267 231.977C199.267 231.977 199.267 231.977 199.267 231.977C199.267 231.977 199.267 231.977 199.267 231.977C199.267 231.977 199.268 231.977 199.268 231.977C199.268 231.977 199.268 231.977 199.268 231.977C199.268 231.977 199.268 231.977 199.268 231.977C199.268 231.977 199.268 231.977 199.268 231.977C199.268 231.977 199.268 231.977 199.268 231.977C199.268 231.977 199.268 231.977 199.268 231.977C199.268 231.977 199.268 231.977 199.268 231.977C199.269 231.977 199.269 231.977 199.269 231.977C199.269 231.977 199.269 231.977 199.269 231.977C199.269 231.977 199.269 231.977 199.269 231.977C199.269 231.977 199.269 231.977 199.269 231.977C199.269 231.977 199.269 231.977 199.269 231.977C199.269 231.977 199.269 231.977 199.269 231.977C199.269 231.977 199.269 231.977 199.27 231.977C199.27 231.977 199.27 231.977 199.27 231.977C199.27 231.977 199.27 231.977 199.27 231.977C199.27 231.977 199.27 231.977 199.27 231.977C199.27 231.977 199.27 231.977 199.27 231.977C199.27 231.977 199.27 231.977 199.27 231.977C199.27 231.977 199.27 231.977 199.27 231.977C199.27 231.977 199.271 231.977 199.271 231.977C199.271 231.977 199.271 231.977 199.271 231.977C199.271 231.977 199.271 231.977 199.271 231.977C199.271 231.977 199.271 231.977 199.271 231.977C199.271 231.977 199.271 231.977 199.271 231.977C199.271 231.977 199.271 231.977 199.271 231.977C199.271 231.977 199.271 231.977 199.271 231.977C199.272 231.977 199.272 231.977 199.272 231.977C199.272 231.977 199.272 231.977 199.272 231.977C199.272 231.977 199.272 231.977 199.272 231.977C199.272 231.977 199.272 231.977 199.272 231.977C199.272 231.977 199.272 231.977 199.272 231.977C199.272 231.977 199.272 231.977 199.272 231.977C199.272 231.977 199.272 231.977 199.273 231.977C199.273 231.977 199.273 231.977 199.273 231.977C199.273 231.977 199.273 231.977 199.273 231.977C199.273 231.977 199.273 231.977 199.273 231.977C199.273 231.977 199.273 231.977 199.273 231.977C199.273 231.977 199.273 231.977 199.273 231.977C199.273 231.977 199.273 231.977 199.273 231.977C199.273 231.977 199.274 231.977 199.274 231.977C199.274 231.977 199.274 231.977 199.274 231.977C199.274 231.977 199.274 231.977 199.274 231.977C199.274 231.977 199.274 231.977 199.274 231.977C199.274 231.977 199.274 231.977 199.274 231.977C199.274 231.977 199.274 231.977 199.274 231.977C199.274 231.977 199.274 231.977 199.274 231.977C199.275 231.977 199.275 231.977 199.275 231.977C199.275 231.977 199.275 231.977 199.275 231.977C199.275 231.977 199.275 231.977 199.275 231.977C199.275 231.977 199.275 231.977 199.275 231.977C199.275 231.977 199.275 231.977 199.275 231.977C199.275 231.977 199.275 231.977 199.275 231.977C199.275 231.977 199.275 231.977 199.276 231.977C199.276 231.977 199.276 231.977 199.276 231.977C199.276 231.977 199.276 231.977 199.276 231.977C199.276 231.977 199.276 231.977 199.276 231.977C199.276 231.977 199.276 231.977 199.276 231.977C199.276 231.977 199.276 231.977 199.276 231.977C199.276 231.977 199.276 231.977 199.276 231.977C199.276 231.977 199.276 231.977 199.277 231.977C199.277 231.977 199.277 231.977 199.277 231.977C199.277 231.977 199.277 231.977 199.277 231.977C199.277 231.977 199.277 231.977 199.277 231.977C199.277 231.977 199.277 231.977 199.277 231.977C199.277 231.977 199.277 231.977 199.277 231.977C199.277 231.977 199.277 231.977 199.277 231.977C199.277 231.977 199.278 231.977 199.278 231.977C199.278 231.977 199.278 231.977 199.278 231.977C199.278 231.977 199.278 231.977 199.278 231.977C199.278 231.977 199.278 231.977 199.278 231.977C199.278 231.977 199.278 231.977 199.278 231.977C199.278 231.977 199.278 231.977 199.278 231.977C199.278 231.977 199.278 231.977 199.278 231.977C199.279 231.977 199.279 231.977 199.279 231.977C199.279 231.977 199.279 231.977 199.279 231.977C199.279 231.977 199.279 231.977 199.279 231.977C199.279 231.977 199.279 231.977 199.279 231.977C199.279 231.977 199.279 231.977 199.279 231.977C199.279 231.977 199.279 231.977 199.279 231.977C199.279 231.977 199.279 231.977 199.279 231.977C199.28 231.977 199.28 231.977 199.28 231.977C199.28 231.977 199.28 231.977 199.28 231.977C199.28 231.977 199.28 231.977 199.28 231.977C199.28 231.977 199.28 231.977 199.28 231.977C199.28 231.977 199.28 231.977 199.28 231.977C199.28 231.977 199.28 231.977 199.28 231.977C199.28 231.977 199.28 231.977 199.281 231.977C199.281 231.977 199.281 231.977 199.281 231.977C199.281 231.977 199.281 231.977 199.281 231.977C199.281 231.977 199.281 231.977 199.281 231.977C199.281 231.977 199.281 231.977 199.281 231.977C199.281 231.977 199.281 231.977 199.281 231.977C199.281 231.977 199.281 231.977 199.281 231.977C199.281 231.977 199.282 231.977 199.282 231.977C199.282 231.977 199.282 231.977 199.282 231.977C199.282 231.977 199.282 231.977 199.282 231.977C199.282 231.977 199.282 231.977 199.282 231.977C199.282 231.977 199.282 231.977 199.282 231.977C199.282 231.977 199.282 231.977 199.282 231.977C199.282 231.977 199.282 231.977 199.282 231.977C199.283 231.977 199.283 231.977 199.283 231.977C199.283 231.977 199.283 231.977 199.283 231.977C199.283 231.977 199.283 231.977 199.283 231.977C199.283 231.977 199.283 231.977 199.283 231.977C199.283 231.977 199.283 231.977 199.283 231.977C199.283 231.977 199.283 231.977 199.283 231.977C199.283 231.977 199.283 231.977 199.283 231.977C199.284 231.977 199.284 231.977 199.284 231.977C199.284 231.977 199.284 231.977 199.284 231.977C199.284 231.977 199.284 231.977 199.284 231.977C199.284 231.977 199.284 231.977 199.284 231.977C199.284 231.977 199.284 231.977 199.284 231.977C199.284 231.977 199.284 231.977 199.284 231.977C199.284 231.977 199.284 231.977 199.285 231.977C199.285 231.977 199.285 231.977 199.285 231.977C199.285 231.977 199.285 231.977 199.285 231.977C199.285 231.977 199.285 231.977 199.285 231.977C199.285 231.977 199.285 231.977 199.285 231.977C199.285 231.977 199.285 231.977 199.285 231.977C199.285 231.977 199.285 231.977 199.285 231.977C199.285 231.977 199.286 231.977 199.286 231.977C199.286 231.977 199.286 231.977 199.286 231.977C199.286 231.977 199.286 231.977 199.286 231.977C199.286 231.977 199.286 231.977 199.286 231.977C199.286 231.977 199.286 231.977 199.286 231.977C199.286 231.977 199.286 231.977 199.286 231.977C199.286 231.977 199.286 231.977 199.286 231.977C199.286 231.977 199.287 231.977 199.287 231.977C199.287 231.977 199.287 231.977 199.287 231.977C199.287 231.977 199.287 231.977 199.287 231.977C199.287 231.977 199.287 231.977 199.287 231.977C199.287 231.977 199.287 231.977 199.287 231.977C199.287 231.977 199.287 231.977 199.287 231.977C199.287 231.977 199.287 231.977 199.287 231.977C199.288 231.977 199.288 231.977 199.288 231.977C199.288 231.977 199.288 231.977 199.288 231.977C199.288 231.977 199.288 231.977 199.288 231.977C199.288 231.977 199.288 231.977 199.288 231.977C199.288 231.977 199.288 231.977 199.288 231.977C199.288 231.977 199.288 231.977 199.288 231.977C199.288 231.977 199.288 231.977 199.289 231.977C199.289 231.977 199.289 231.977 199.289 231.977C199.289 231.977 199.289 231.977 199.289 231.977C199.289 231.977 199.289 231.977 199.289 231.977C199.289 231.977 199.289 231.977 199.289 231.977C199.289 231.977 199.289 231.977 199.289 231.977C199.289 231.977 199.289 231.977 199.289 231.977C199.289 231.977 199.289 231.977 199.29 231.977C199.29 231.977 199.29 231.977 199.29 231.977C199.29 231.977 199.29 231.977 199.29 231.977C199.29 231.977 199.29 231.977 199.29 231.977C199.29 231.977 199.29 231.977 199.29 231.977C199.29 231.977 199.29 231.977 199.29 231.977C199.29 231.977 199.29 231.977 199.29 231.977C199.29 231.977 199.291 231.977 199.291 231.977C199.291 231.977 199.291 231.977 199.291 231.977C199.291 231.977 199.291 231.977 199.291 231.977C199.291 231.977 199.291 231.977 199.291 231.977C199.291 231.977 199.291 231.977 199.291 231.977C199.291 231.977 199.291 231.977 199.291 231.977C199.291 231.977 199.291 231.977 199.291 231.977C199.292 231.977 199.292 231.977 199.292 231.977C199.292 231.977 199.292 231.977 199.292 231.977C199.292 231.977 199.292 231.977 199.292 231.977C199.292 231.977 199.292 231.977 199.292 231.977C199.292 231.977 199.292 231.977 199.292 231.977C199.292 231.977 199.292 231.977 199.292 231.977C199.292 231.977 199.292 231.977 199.293 231.977C199.293 231.977 199.293 231.977 199.293 231.977C199.293 231.977 199.293 231.977 199.293 231.977C199.293 231.977 199.293 231.977 199.293 231.977C199.293 231.977 199.293 231.977 199.293 231.977C199.293 231.977 199.293 231.977 199.293 231.977C199.293 231.977 199.293 231.977 199.293 231.977C199.293 231.977 199.294 231.977 199.294 231.977C199.294 231.977 199.294 231.977 199.294 231.977C199.294 231.977 199.294 231.977 199.294 231.977C199.294 231.977 199.294 231.977 199.294 231.977C199.294 231.977 199.294 231.977 199.294 231.977C199.294 231.977 199.294 231.977 199.294 231.977C199.294 231.977 199.294 231.977 199.294 231.977C199.295 231.977 199.295 231.977 199.295 231.977C199.295 231.977 199.295 231.977 199.295 231.977C199.295 231.977 199.295 231.977 199.295 231.977C199.295 231.977 199.295 231.977 199.295 231.977C199.295 231.977 199.295 231.977 199.295 231.977C199.295 231.977 199.295 231.977 199.295 231.977C199.295 231.977 199.295 231.977 199.296 231.977C199.296 231.977 199.296 231.977 199.296 231.977C199.296 231.977 199.296 231.977 199.296 231.977C199.296 231.977 199.296 231.977 199.296 231.977C199.296 231.977 199.296 231.977 199.296 231.977C199.296 231.977 199.296 231.977 199.296 231.977C199.296 231.977 199.296 231.977 199.296 231.977C199.296 231.977 199.297 231.977 199.297 231.977C199.297 231.977 199.297 231.977 199.297 231.977C199.297 231.977 199.297 231.977 199.297 231.977C199.297 231.977 199.297 231.977 199.297 231.977C199.297 231.977 199.297 231.977 199.297 231.977C199.297 231.977 199.297 231.977 199.297 231.977C199.297 231.977 199.297 231.977 199.297 231.977C199.298 231.977 199.298 231.977 199.298 231.977C199.298 231.977 199.298 231.977 199.298 231.977C199.298 231.977 199.298 231.977 199.298 231.977C199.298 231.977 199.298 231.977 199.298 231.977C199.298 231.977 199.298 231.977 199.298 231.977C199.298 231.977 199.298 231.977 199.298 231.977C199.298 231.977 199.298 231.977 199.299 231.977C199.299 231.977 199.299 231.977 199.299 231.977C199.299 231.977 199.299 231.977 199.299 231.977C199.299 231.977 199.299 231.977 199.299 231.977C199.299 231.977 199.299 231.977 199.299 231.977C199.299 231.977 199.299 231.977 199.299 231.977C199.299 231.977 199.299 231.977 199.299 231.977C199.299 231.977 199.3 231.977 199.3 231.977C199.3 231.977 199.3 231.977 199.3 231.977C199.3 231.977 199.3 231.977 199.3 231.977C199.3 231.977 199.3 231.977 199.3 231.977C199.3 231.977 199.3 231.977 199.3 231.977C199.3 231.977 199.3 231.977 199.3 231.977C199.3 231.977 199.3 231.977 199.3 231.977C199.301 231.977 199.301 231.977 199.301 231.977C199.301 231.977 199.301 231.977 199.301 231.977C199.301 231.977 199.301 231.977 199.301 231.977C199.301 231.977 199.301 231.977 199.301 231.977C199.301 231.977 199.301 231.977 199.301 231.977C199.301 231.977 199.301 231.977 199.301 231.977C199.301 231.977 199.301 231.977 199.302 231.977C199.302 231.977 199.302 231.977 199.302 231.977C199.302 231.977 199.302 231.977 199.302 231.977C199.302 231.977 199.302 231.977 199.302 231.977C199.302 231.977 199.302 231.977 199.302 231.977C199.302 231.977 199.302 231.977 199.302 231.977C199.302 231.977 199.302 231.977 199.302 231.977C199.303 231.977 199.303 231.977 199.303 231.977C199.303 231.977 199.303 231.977 199.303 231.977C199.303 231.977 199.303 231.977 199.303 231.977C199.303 231.977 199.303 231.977 199.303 231.977C199.303 231.977 199.303 231.977 199.303 231.977C199.303 231.977 199.303 231.977 199.303 231.977C199.303 231.977 199.303 231.977 199.304 231.977C199.304 231.977 199.304 231.977 199.304 231.977C199.304 231.977 199.304 231.977 199.304 231.977C199.304 231.977 199.304 231.977 199.304 231.977C199.304 231.977 199.304 231.977 199.304 231.977C199.304 231.977 199.304 231.977 199.304 231.977C199.304 231.977 199.304 231.977 199.304 231.977C199.305 231.977 199.305 231.977 199.305 231.977C199.305 231.977 199.305 231.977 199.305 231.977C199.305 231.977 199.305 231.977 199.305 231.977C199.305 231.977 199.305 231.977 199.305 231.977C199.305 231.977 199.305 231.977 199.305 231.977C199.305 231.977 199.305 231.977 199.305 231.977C199.305 231.977 199.305 231.977 199.306 231.977C199.306 231.977 199.306 231.977 199.306 231.977C199.306 231.977 199.306 231.977 199.306 231.977C199.306 231.977 199.306 231.977 199.306 231.977C199.306 231.977 199.306 231.977 199.306 231.977C199.306 231.977 199.306 231.977 199.306 231.977C199.306 231.977 199.306 231.977 199.306 231.977C199.307 231.977 199.307 231.977 199.307 231.977C199.307 231.977 199.307 231.977 199.307 231.977C199.307 231.977 199.307 231.977 199.307 231.977C199.307 231.977 199.307 231.977 199.307 231.977C199.307 231.977 199.307 231.977 199.307 231.977C199.307 231.977 199.307 231.977 199.307 231.977C199.307 231.977 199.308 231.977 199.308 231.977C199.308 231.977 199.308 231.977 199.308 231.977C199.308 231.977 199.308 231.977 199.308 231.977C199.308 231.977 199.308 231.977 199.308 231.977C199.308 231.977 199.308 231.977 199.308 231.977C199.308 231.977 199.308 231.977 199.308 231.977C199.308 231.977 199.308 231.977 199.308 231.977C199.309 231.977 199.309 231.977 199.309 231.977C199.309 231.977 199.309 231.977 199.309 231.977C199.309 231.977 199.309 231.977 199.309 231.977C199.309 231.977 199.309 231.977 199.309 231.977C199.309 231.977 199.309 231.977 199.309 231.977C199.309 231.977 199.309 231.977 199.309 231.977C199.309 231.977 199.31 231.977 199.31 231.977C199.31 231.977 199.31 231.977 199.31 231.977C199.31 231.977 199.31 231.977 199.31 231.977C199.31 231.977 199.31 231.977 199.31 231.977C199.31 231.977 199.31 231.977 199.31 231.977C199.31 231.977 199.31 231.977 199.31 231.977C199.31 231.977 199.31 231.977 199.311 231.977C199.311 231.977 199.311 231.977 199.311 231.977C199.311 231.977 199.311 231.977 199.311 231.977C199.311 231.977 199.311 231.977 199.311 231.977C199.311 231.977 199.311 231.977 199.311 231.977C199.311 231.977 199.311 231.977 199.311 231.977C199.311 231.977 199.311 231.977 199.311 231.977C199.312 231.977 199.312 231.977 199.312 231.977C199.312 231.977 199.312 231.977 199.312 231.977C199.312 231.977 199.312 231.977 199.312 231.977C199.312 231.977 199.312 231.977 199.312 231.977C199.312 231.977 199.312 231.977 199.312 231.977C199.312 231.977 199.312 231.977 199.312 231.977C199.312 231.977 199.313 231.977 199.313 231.977C199.313 231.977 199.313 231.977 199.313 231.977C199.313 231.977 199.313 231.977 199.313 231.977C199.313 231.977 199.313 231.977 199.313 231.977C199.313 231.977 199.313 231.977 199.313 231.977C199.313 231.977 199.313 231.977 199.313 231.977C199.313 231.977 199.314 231.977 199.314 231.977C199.314 231.977 199.314 231.977 199.314 231.977C199.314 231.977 199.314 231.977 199.314 231.977C199.314 231.977 199.314 231.977 199.314 231.977C199.314 231.977 199.314 231.977 199.314 231.977C199.314 231.977 199.314 231.977 199.314 231.977C199.314 231.977 199.314 231.977 199.315 231.977C199.315 231.977 199.315 231.977 199.315 231.977C199.315 231.977 199.315 231.977 199.315 231.977C199.315 231.977 199.315 231.977 199.315 231.977C199.315 231.977 199.315 231.977 199.315 231.977C199.315 231.977 199.315 231.977 199.315 231.977C199.315 231.977 199.315 231.977 199.315 231.977C199.316 231.977 199.316 231.977 199.316 231.977C199.316 231.977 199.316 231.977 199.316 231.977C199.316 231.977 199.316 231.977 199.316 231.977C199.316 231.977 199.316 231.977 199.316 231.977C199.316 231.977 199.316 231.977 199.316 231.977C199.316 231.977 199.316 231.977 199.316 231.977C199.317 231.977 199.317 231.977 199.317 231.977C199.317 231.977 199.317 231.977 199.317 231.977C199.317 231.977 199.317 231.977 199.317 231.977C199.317 231.977 199.317 231.977 199.317 231.977C199.317 231.977 199.317 231.977 199.317 231.977C199.317 231.977 199.317 231.977 199.317 231.977C199.318 231.977 199.318 231.977 199.318 231.977C199.318 231.977 199.318 231.977 199.318 231.977C199.318 231.977 199.318 231.977 199.318 231.977C199.318 231.977 199.318 231.977 199.318 231.977C199.318 231.977 199.318 231.977 199.318 231.977C199.318 231.977 199.318 231.977 199.318 231.977C199.318 231.977 199.319 231.977 199.319 231.977C199.319 231.977 199.319 231.977 199.319 231.977C199.319 231.977 199.319 231.977 199.319 231.977C199.319 231.977 199.319 231.977 199.319 231.977C199.319 231.977 199.319 231.977 199.319 231.977C199.319 231.977 199.319 231.977 199.319 231.977C199.319 231.977 199.32 231.977 199.32 231.977C199.32 231.977 199.32 231.977 199.32 231.977C199.32 231.977 199.32 231.977 199.32 231.977C199.32 231.977 199.32 231.977 199.32 231.977C199.32 231.977 199.32 231.977 199.32 231.977C199.32 231.977 199.32 231.977 199.32 231.977C199.32 231.977 199.321 231.977 199.321 231.977C199.321 231.977 199.321 231.977 199.321 231.977C199.321 231.977 199.321 231.977 199.321 231.977C199.321 231.977 199.321 231.977 199.321 231.977C199.321 231.977 199.321 231.977 199.321 231.977C199.321 231.977 199.321 231.977 199.321 231.977C199.321 231.977 199.322 231.977 199.322 231.977C199.322 231.977 199.322 231.977 199.322 231.977C199.322 231.977 199.322 231.977 199.322 231.977C199.322 231.977 199.322 231.977 199.322 231.977C199.322 231.977 199.322 231.977 199.322 231.977C199.322 231.977 199.322 231.977 199.322 231.977V223.064ZM199.243 223.064V214.15H198.931V223.064V231.977H199.243V223.064ZM198.931 223.064V214.15C198.889 214.15 198.935 214.15 198.994 214.151C199.064 214.152 199.182 214.155 199.329 214.164L198.762 223.06L198.195 231.956C198.58 231.98 198.91 231.977 198.931 231.977V223.064ZM198.762 223.06L198.885 214.147C190.193 214.027 182.032 210.294 170.116 202.425L165.204 209.863L160.292 217.301C172.716 225.506 184.535 231.778 198.639 231.973L198.762 223.06ZM165.204 209.863L165.03 200.951C152.601 201.194 141.746 205.128 134.23 213.863L140.986 219.677L147.743 225.491C151.078 221.615 156.505 218.949 165.378 218.775L165.204 209.863ZM140.986 219.677L134.228 213.865C127.023 222.241 124.775 232.819 124.104 240.428C123.419 248.203 124.265 254.239 124.346 254.772L133.158 253.426L141.969 252.079C142.018 252.4 141.344 247.881 141.863 241.994C142.397 235.94 144.079 229.75 147.744 225.49L140.986 219.677ZM133.158 253.426L124.346 254.768C123.908 251.896 125.882 249.24 128.721 248.803L130.077 257.613L131.432 266.423C138.286 265.368 143.018 258.963 141.97 252.084L133.158 253.426ZM130.077 257.613L128.721 248.803C129.078 248.748 129.356 248.739 129.517 248.739V257.653V266.566C130.05 266.566 130.703 266.535 131.432 266.423L130.077 257.613Z" fill="#9B7FD4" mask="url(#path-13-inside-5_37_2)"/>
<mask id="path-15-inside-6_37_2" fill="white">
<path d="M192.32 244.284C191.239 244.284 190.172 243.813 189.447 242.905L162.733 209.548C161.462 207.964 161.717 205.648 163.304 204.38C164.895 203.098 167.208 203.368 168.471 204.951L195.185 238.308C196.457 239.892 196.202 242.208 194.614 243.476C193.935 244.021 193.124 244.284 192.32 244.284Z"/>
</mask>
<path d="M192.32 244.284C191.239 244.284 190.172 243.813 189.447 242.905L162.733 209.548C161.462 207.964 161.717 205.648 163.304 204.38C164.895 203.098 167.208 203.368 168.471 204.951L195.185 238.308C196.457 239.892 196.202 242.208 194.614 243.476C193.935 244.021 193.124 244.284 192.32 244.284Z" fill="#9B7FD4"/>
<path d="M189.447 242.905L196.412 237.343L196.404 237.333L189.447 242.905ZM162.733 209.548L169.691 203.976L169.684 203.967L162.733 209.548ZM163.304 204.38L168.867 211.345L168.882 211.333L168.897 211.321L163.304 204.38ZM168.471 204.951L161.505 210.512L161.509 210.517L161.514 210.523L168.471 204.951ZM195.185 238.308L188.228 243.88L188.234 243.888L195.185 238.308ZM194.614 243.476L189.052 236.51L189.041 236.519L189.029 236.529L194.614 243.476ZM192.32 244.284V235.37C193.821 235.37 195.368 236.035 196.412 237.343L189.447 242.905L182.481 248.466C184.976 251.591 188.656 253.197 192.32 253.197V244.284ZM189.447 242.905L196.404 237.333L169.691 203.976L162.733 209.548L155.776 215.12L182.489 248.477L189.447 242.905ZM162.733 209.548L169.684 203.967C171.497 206.226 171.137 209.532 168.867 211.345L163.304 204.38L157.741 197.415C152.297 201.764 151.427 209.703 155.782 215.128L162.733 209.548ZM163.304 204.38L168.897 211.321C166.61 213.164 163.296 212.756 161.505 210.512L168.471 204.951L175.438 199.39C171.119 193.98 163.18 193.032 157.711 197.439L163.304 204.38ZM168.471 204.951L161.514 210.523L188.228 243.88L195.185 238.308L202.143 232.736L175.429 199.379L168.471 204.951ZM195.185 238.308L188.234 243.888C186.422 241.631 186.781 238.324 189.052 236.51L194.614 243.476L200.176 250.441C205.623 246.092 206.491 238.153 202.137 232.729L195.185 238.308ZM194.614 243.476L189.029 236.529C190 235.748 191.179 235.37 192.32 235.37V244.284V253.197C195.069 253.197 197.871 252.294 200.199 250.423L194.614 243.476Z" fill="#9B7FD4" mask="url(#path-15-inside-6_37_2)"/>
<mask id="path-17-inside-7_37_2" fill="white">
<path d="M188.682 251.907C188.409 251.907 188.133 251.878 187.852 251.814L169.844 247.666C168.856 247.44 168.009 246.815 167.495 245.939C166.985 245.066 166.856 244.017 167.139 243.048L168.824 237.309H156.919C155.997 237.309 155.109 236.961 154.431 236.34C149.267 231.589 148.474 226.612 148.718 223.269C149.501 212.506 161.437 204.064 162.794 203.138C164.468 201.995 166.755 202.423 167.897 204.1C169.043 205.773 168.615 208.061 166.942 209.21C164.062 211.188 156.488 217.67 156.05 223.814C155.896 225.991 156.679 228.009 158.442 229.955H173.736C174.896 229.955 175.984 230.501 176.681 231.427C177.374 232.357 177.589 233.557 177.266 234.667L175.295 241.375L189.505 244.646C191.483 245.102 192.718 247.077 192.262 249.056C191.871 250.758 190.356 251.907 188.682 251.907Z"/>
</mask>
<path d="M188.682 251.907C188.409 251.907 188.133 251.878 187.852 251.814L169.844 247.666C168.856 247.44 168.009 246.815 167.495 245.939C166.985 245.066 166.856 244.017 167.139 243.048L168.824 237.309H156.919C155.997 237.309 155.109 236.961 154.431 236.34C149.267 231.589 148.474 226.612 148.718 223.269C149.501 212.506 161.437 204.064 162.794 203.138C164.468 201.995 166.755 202.423 167.897 204.1C169.043 205.773 168.615 208.061 166.942 209.21C164.062 211.188 156.488 217.67 156.05 223.814C155.896 225.991 156.679 228.009 158.442 229.955H173.736C174.896 229.955 175.984 230.501 176.681 231.427C177.374 232.357 177.589 233.557 177.266 234.667L175.295 241.375L189.505 244.646C191.483 245.102 192.718 247.077 192.262 249.056C191.871 250.758 190.356 251.907 188.682 251.907Z" fill="#9B7FD4"/>
<path d="M187.852 251.814L185.852 260.5L185.857 260.501L187.852 251.814ZM169.844 247.666L171.844 238.98L171.833 238.977L169.844 247.666ZM167.495 245.939L159.799 250.437L159.805 250.447L167.495 245.939ZM167.139 243.048L158.586 240.538L158.584 240.546L167.139 243.048ZM168.824 237.309L177.377 239.819L180.729 228.396H168.824V237.309ZM154.431 236.34L148.396 242.9L148.404 242.907L148.412 242.915L154.431 236.34ZM148.718 223.269L157.608 223.918L157.608 223.915L148.718 223.269ZM162.794 203.138L167.819 210.5L167.819 210.5L162.794 203.138ZM167.897 204.1L160.53 209.117L160.536 209.126L160.542 209.135L167.897 204.1ZM166.942 209.21L161.896 201.862L161.894 201.863L166.942 209.21ZM156.05 223.814L147.159 223.181L147.159 223.183L156.05 223.814ZM158.442 229.955L151.836 235.939L154.49 238.869H158.442V229.955ZM176.681 231.427L183.829 226.102L183.817 226.085L183.804 226.069L176.681 231.427ZM177.266 234.667L185.818 237.18L185.821 237.17L185.824 237.159L177.266 234.667ZM175.295 241.375L166.743 238.861L164.075 247.938L173.295 250.061L175.295 241.375ZM189.505 244.646L191.508 235.96L191.504 235.959L189.505 244.646ZM192.262 249.056L183.576 247.054L183.576 247.057L192.262 249.056ZM188.682 251.907V242.993C189.049 242.993 189.443 243.033 189.848 243.126L187.852 251.814L185.857 260.501C186.822 260.723 187.77 260.821 188.682 260.821V251.907ZM187.852 251.814L189.853 243.127L171.844 238.98L169.844 247.666L167.843 256.352L185.852 260.5L187.852 251.814ZM169.844 247.666L171.833 238.977C173.261 239.304 174.466 240.205 175.185 241.431L167.495 245.939L159.805 250.447C161.551 253.425 164.451 255.576 167.854 256.355L169.844 247.666ZM167.495 245.939L175.191 241.441C175.916 242.682 176.1 244.165 175.695 245.55L167.139 243.048L158.584 240.546C157.612 243.87 158.054 247.45 159.799 250.437L167.495 245.939ZM167.139 243.048L175.692 245.558L177.377 239.819L168.824 237.309L160.271 234.799L158.586 240.538L167.139 243.048ZM168.824 237.309V228.396H156.919V237.309V246.223H168.824V237.309ZM156.919 237.309V228.396C158.244 228.396 159.499 228.895 160.45 229.765L154.431 236.34L148.412 242.915C150.72 245.028 153.75 246.223 156.919 246.223V237.309ZM154.431 236.34L160.466 229.78C158.899 228.338 158.239 227.105 157.932 226.253C157.612 225.366 157.56 224.567 157.608 223.918L148.718 223.269L139.828 222.619C139.416 228.253 140.938 236.039 148.396 242.9L154.431 236.34ZM148.718 223.269L157.608 223.915C157.784 221.496 159.377 218.541 162.132 215.515C164.729 212.663 167.427 210.768 167.819 210.5L162.794 203.138L157.77 195.775C156.805 196.433 152.856 199.223 148.949 203.514C145.201 207.631 140.434 214.279 139.828 222.622L148.718 223.269ZM162.794 203.138L167.819 210.5C165.44 212.124 162.172 211.528 160.53 209.117L167.897 204.1L175.265 199.083C171.339 193.317 163.496 191.867 157.77 195.775L162.794 203.138ZM167.897 204.1L160.542 209.135C158.906 206.745 159.521 203.493 161.896 201.862L166.942 209.21L171.988 216.558C177.71 212.628 179.18 204.802 175.253 199.065L167.897 204.1ZM166.942 209.21L161.894 201.863C159.922 203.218 156.731 205.815 153.874 209.078C151.262 212.061 147.594 217.086 147.159 223.181L156.05 223.814L164.942 224.448C164.933 224.574 164.934 224.266 165.364 223.475C165.778 222.713 166.425 221.806 167.286 220.822C169.046 218.813 171.082 217.18 171.99 216.556L166.942 209.21ZM156.05 223.814L147.159 223.183C146.799 228.257 148.79 232.577 151.836 235.939L158.442 229.955L165.048 223.97C164.752 223.643 164.765 223.562 164.834 223.739C164.868 223.826 164.904 223.947 164.925 224.09C164.947 224.233 164.948 224.356 164.942 224.445L156.05 223.814ZM158.442 229.955V238.869H173.736V229.955V221.041H158.442V229.955ZM173.736 229.955V238.869C172.08 238.869 170.536 238.086 169.558 236.786L176.681 231.427L183.804 226.069C181.432 222.916 177.712 221.041 173.736 221.041V229.955ZM176.681 231.427L169.533 236.752C168.556 235.442 168.25 233.747 168.708 232.174L177.266 234.667L185.824 237.159C186.929 233.366 186.191 229.273 183.829 226.102L176.681 231.427ZM177.266 234.667L168.714 232.153L166.743 238.861L175.295 241.375L183.847 243.888L185.818 237.18L177.266 234.667ZM175.295 241.375L173.295 250.061L187.505 253.332L189.505 244.646L191.504 235.959L177.294 232.688L175.295 241.375ZM189.505 244.646L187.501 253.331C184.684 252.682 182.927 249.873 183.576 247.054L192.262 249.056L200.949 251.057C202.51 244.281 198.282 237.522 191.508 235.96L189.505 244.646ZM192.262 249.056L183.576 247.057C184.138 244.612 186.306 242.993 188.682 242.993V251.907V260.821C194.405 260.821 199.603 256.904 200.949 251.054L192.262 249.056Z" fill="#9B7FD4" mask="url(#path-17-inside-7_37_2)"/>
<path d="M196.55 260.792H288.444L314 200.67H222.107L196.55 260.792Z" fill="#6340AB" stroke="#9B7FD4" stroke-width="17.8274" stroke-miterlimit="10" stroke-linecap="round" stroke-linejoin="round"/>
<path d="M253 232V232.5M261 232V232.5M257 223C257.67 223 258.35 223.09 259 223.26C260.78 221.26 264.03 220.42 265.42 221C266.82 221.58 265 228 265 228C265.57 229.07 266 230.24 266 231.44C266 235.9 261.97 239 257 239C252.03 239 248 236 248 231.44C248 230.19 248.5 229.04 249 228C249 228 247.11 221.58 248.5 221C249.89 220.42 253.22 221.23 255 223.23C255.656 223.079 256.327 223.002 257 223ZM256.25 234.25H257.75L257 235L256.25 234.25Z" stroke="white" stroke-width="2" stroke-linecap="round" stroke-linejoin="round"/>
<path d="M156.211 260.793H196.55Z" fill="#9B7FD4"/>
<path d="M156.211 260.793H196.55" stroke="#9B7FD4" stroke-width="17.8274" stroke-miterlimit="10" stroke-linecap="round" stroke-linejoin="round"/>
<path d="M488.4 116.931V112.931H500.4C504.267 112.931 508.867 112.798 514.2 112.531C519.533 112.264 524.067 112.064 527.8 111.931C528.2 114.464 528.067 116.798 527.4 118.931C524.467 119.464 521.667 119.998 519 120.531C516.333 121.064 513.8 121.864 511.4 122.931L521.4 242.931L536.8 246.931C537.2 249.464 536.867 251.798 535.8 253.931C532.2 253.664 528.133 253.398 523.6 253.131C519.2 252.998 515.133 252.931 511.4 252.931C507.667 252.931 503.067 252.998 497.6 253.131C492.267 253.398 487.733 253.664 484 253.931C483.6 251.398 483.733 249.064 484.4 246.931C487.333 246.398 490.2 245.931 493 245.531C495.8 245.131 498.267 244.264 500.4 242.931L492 155.331C491.867 153.464 491.733 151.598 491.6 149.731C491.6 147.864 491.6 145.998 491.6 144.131C491.6 142.664 491.6 141.131 491.6 139.531C491.6 137.931 491.667 136.398 491.8 134.931H491.2C490.267 138.264 489.267 141.664 488.2 145.131C487.267 148.464 486.133 151.864 484.8 155.331L448.6 246.731C446.067 248.198 443.667 248.864 441.4 248.731L402 155.331C400.8 152.264 399.667 149.064 398.6 145.731C397.533 142.264 396.467 138.664 395.4 134.931H394.8L394.2 155.531L389.2 243.131L404.6 247.131C405 249.664 404.667 251.998 403.6 254.131C400 253.864 396.533 253.598 393.2 253.331C389.867 253.064 386.333 252.931 382.6 252.931C378.867 252.931 375.267 252.998 371.8 253.131C368.467 253.398 364.933 253.664 361.2 253.931C360.8 251.398 360.933 249.064 361.6 246.931C364.267 246.531 366.867 245.998 369.4 245.331C372.067 244.664 374.667 243.864 377.2 242.931L385.2 122.931L369.8 118.931C369.4 116.398 369.733 114.064 370.8 111.931C374.4 112.064 378.4 112.264 382.8 112.531C387.333 112.798 391.467 112.931 395.2 112.931H408.2V116.931L440.8 199.931C442.533 204.064 443.933 207.998 445 211.731C446.067 215.464 447.067 219.398 448 223.531H448.4C449.467 219.264 450.6 215.264 451.8 211.531C453 207.664 454.333 203.798 455.8 199.931L488.4 116.931ZM584.994 243.131L603.994 246.931C604.394 249.464 604.06 251.798 602.994 253.931C600.594 253.798 597.594 253.664 593.994 253.531C590.394 253.398 586.794 253.264 583.194 253.131C579.594 252.998 576.527 252.931 573.994 252.931C570.26 252.931 566.26 252.998 561.994 253.131C557.727 253.398 553.727 253.664 549.994 253.931C549.594 251.398 549.727 249.064 550.394 246.931C552.66 246.398 554.86 245.931 556.994 245.531C559.127 245.131 561.46 244.264 563.994 242.931V122.931L548.594 118.931C548.194 116.398 548.527 114.064 549.594 111.931C553.194 112.064 557.194 112.264 561.594 112.531C566.127 112.798 570.26 112.931 573.994 112.931H648.994C649.127 114.264 649.194 115.598 649.194 116.931C649.194 118.131 649.194 119.398 649.194 120.731C649.194 125.398 648.927 129.998 648.394 134.531C647.994 139.064 647.46 143.531 646.794 147.931C645.46 148.464 644.327 148.731 643.394 148.731C642.46 148.731 641.194 148.664 639.594 148.531L634.594 121.931H584.994V173.931H616.394L620.194 156.331C621.394 155.931 622.727 155.798 624.194 155.931C625.66 155.931 626.994 156.398 628.194 157.331C627.927 160.264 627.727 163.598 627.594 167.331C627.46 171.064 627.394 174.864 627.394 178.731C627.394 182.998 627.46 187.198 627.594 191.331C627.727 195.464 627.927 199.131 628.194 202.331C626.994 202.864 625.66 203.131 624.194 203.131C622.727 203.131 621.394 202.998 620.194 202.731L616.394 184.931H584.994V243.131ZM679.827 204.931L666.827 242.931L682.227 246.931C682.627 249.464 682.293 251.798 681.227 253.931C677.627 253.664 673.56 253.398 669.027 253.131C664.627 252.998 660.56 252.931 656.827 252.931C653.093 252.931 650.027 252.998 647.627 253.131C645.227 253.398 642.16 253.664 638.427 253.931C638.027 251.398 638.16 249.064 638.827 246.931C641.76 246.531 644.493 245.998 647.027 245.331C649.56 244.664 651.96 243.864 654.227 242.931L701.627 109.131C702.693 108.464 703.96 108.064 705.427 107.931C707.027 107.664 708.36 107.531 709.427 107.531L763.627 242.931L779.027 246.931C779.427 249.464 779.093 251.798 778.027 253.931C774.427 253.664 770.36 253.398 765.827 253.131C761.427 252.998 757.36 252.931 753.627 252.931C751.093 252.931 748.027 252.998 744.427 253.131C740.827 253.264 737.227 253.398 733.627 253.531C730.16 253.664 727.16 253.798 724.627 253.931C724.227 251.398 724.36 249.064 725.027 246.931C728.093 246.531 730.893 245.998 733.427 245.331C736.093 244.664 738.627 243.864 741.027 242.931L726.227 204.931H679.827ZM701.627 136.931C700.293 141.731 698.893 146.598 697.427 151.531C696.093 156.464 694.56 161.464 692.827 166.531L683.427 193.931H721.827L710.827 165.531C708.56 160.064 706.693 155.064 705.227 150.531C703.893 145.998 702.827 141.464 702.027 136.931H701.627Z" fill="#9B7FD4"/>
<path d="M808 261C819.721 261 829.222 251.499 829.222 239.778V200.787C829.222 195.596 829.222 193.001 829.809 190.558C830.329 188.393 831.186 186.323 832.349 184.424C833.662 182.283 835.498 180.447 839.168 176.776L850.444 165.5L839.168 154.224C835.498 150.553 833.662 148.717 832.349 146.576C831.186 144.677 830.329 142.607 829.809 140.441C829.222 137.999 829.222 135.404 829.222 130.213V91.2222C829.222 79.5015 819.721 70 808 70" stroke="#9B7FD4" stroke-width="20" stroke-linecap="round" stroke-linejoin="round"/>
</svg>
